<svg xmlns="http://www.w3.org/2000/svg" viewBox="0 0 198.89 199.01"><defs><style>.cls-1{isolation:isolate;}.cls-2{fill:#99bfbf;}.cls-10,.cls-12,.cls-15,.cls-16,.cls-17,.cls-2,.cls-3,.cls-4,.cls-5{stroke:#005ea5;stroke-miterlimit:10;}.cls-2,.cls-4{stroke-width:2px;}.cls-3{fill:#d0e9ed;}.cls-10,.cls-15,.cls-16,.cls-3{stroke-width:3px;}.cls-10,.cls-12,.cls-13,.cls-4{fill:#fff;}.cls-5,.cls-6{fill:#e3ebed;}.cls-11,.cls-19,.cls-35,.cls-6{mix-blend-mode:multiply;}.cls-7{fill:#c5db93;}.cls-8{fill:#d7ff64;}.cls-9{fill:#89c6e5;}.cls-11{fill:#f3e3c2;}.cls-14{fill:#005ea5;}.cls-15,.cls-16,.cls-17,.cls-26,.cls-33,.cls-41,.cls-48{fill:none;}.cls-16{stroke-dasharray:11.46 11.46;}.cls-18{fill:#c6dc94;}.cls-19{opacity:0.65;}.cls-20,.cls-22,.cls-29,.cls-37,.cls-44{opacity:0.9;}.cls-21{fill:#f1f6f7;}.cls-22{fill:#dae8e9;}.cls-23{fill:#e2eded;}.cls-24{fill:#eaf2f2;}.cls-25{fill:#f7fafa;}.cls-26{stroke:#e8f1f1;}.cls-26,.cls-33,.cls-41,.cls-48{stroke-width:0;}.cls-27{fill:#fcfdfd;}.cls-28{fill:#f6fbfc;}.cls-29{fill:#e8f4f6;}.cls-30{fill:#edf7f8;}.cls-31{fill:#f2f9fa;}.cls-32{fill:#fafdfd;}.cls-33{stroke:#f1f8fa;}.cls-34{fill:#fdfefe;}.cls-35{opacity:0.88;}.cls-36{fill:#f4f8eb;}.cls-37{fill:#e3edca;}.cls-38{fill:#e9f1d5;}.cls-39{fill:#eff5e1;}.cls-40{fill:#f9fbf3;}.cls-41{stroke:#edf4de;}.cls-42{fill:#fdfefb;}.cls-43{fill:#fdfaf4;}.cls-44{fill:#f9f1e1;}.cls-45{fill:#faf4e8;}.cls-46{fill:#fcf7ee;}.cls-47{fill:#fefcf8;}.cls-48{stroke:#fbf7ed;}.cls-49{fill:#fffefd;}.cls-50{fill:#d8d8d8;}</style></defs><title>doc_1</title><g class="cls-1"><g id="Livello_2" data-name="Livello 2"><g id="Livello_1-2" data-name="Livello 1"><rect class="cls-2" x="77.97" y="26.56" width="119.43" height="152.15" rx="5.97" ry="5.97"/><rect class="cls-3" x="82.58" y="27.52" width="114.82" height="150.25" rx="5.97" ry="5.97"/><rect class="cls-4" x="92.17" y="34.79" width="95.63" height="135.7" rx="5.97" ry="5.97"/><path class="cls-5" d="M177.61,113.79H102.36a3.23,3.23,0,0,1-3.23-3.23V70.06a3.23,3.23,0,0,1,3.23-3.23h75.24a3.23,3.23,0,0,1,3.23,3.23v40.5A3.23,3.23,0,0,1,177.61,113.79Z"/><path class="cls-6" d="M181.83,163.21H98.14a6,6,0,0,1-6-6v7.27a6,6,0,0,0,6,6h83.69a6,6,0,0,0,6-6v-7.27A6,6,0,0,1,181.83,163.21Z"/><path class="cls-7" d="M166.51,129.88v14.29H152.23a14.29,14.29,0,1,0,14.29-14.29Z"/><path class="cls-8" d="M163.92,127.29a14.29,14.29,0,0,0-14.29,14.29h14.29Z"/><path class="cls-9" d="M108.13,68.09c.21,3.7.3,7.41.38,11.11s.1,7.41.12,11.11,0,7.41-.12,11.11l-.14,5.56c-.08,1.85-.13,3.7-.24,5.56-.11-1.85-.16-3.7-.25-5.56l-.14-5.56c-.09-3.7-.1-7.41-.12-11.11s0-7.41.12-11.11S107.93,71.79,108.13,68.09Z"/><path class="cls-9" d="M118.76,68.09c.21,3.7.3,7.41.38,11.11s.1,7.41.12,11.11,0,7.41-.12,11.11L119,107c-.08,1.85-.13,3.7-.24,5.56-.11-1.85-.16-3.7-.25-5.56l-.14-5.56c-.09-3.7-.1-7.41-.12-11.11s0-7.41.12-11.11S118.55,71.79,118.76,68.09Z"/><path class="cls-9" d="M129.38,68.09c.21,3.7.3,7.41.38,11.11s.1,7.41.12,11.11,0,7.41-.12,11.11l-.14,5.56c-.08,1.85-.13,3.7-.24,5.56-.11-1.85-.16-3.7-.25-5.56l-.14-5.56c-.09-3.7-.1-7.41-.12-11.11s0-7.41.12-11.11S129.18,71.79,129.38,68.09Z"/><path class="cls-9" d="M140,68.09c.21,3.7.3,7.41.38,11.11s.1,7.41.12,11.11,0,7.41-.12,11.11l-.14,5.56c-.08,1.85-.13,3.7-.24,5.56-.11-1.85-.16-3.7-.25-5.56l-.14-5.56c-.09-3.7-.1-7.41-.12-11.11s0-7.41.12-11.11S139.8,71.79,140,68.09Z"/><path class="cls-9" d="M150.63,68.09c.21,3.7.3,7.41.38,11.11s.1,7.41.12,11.11,0,7.41-.12,11.11l-.14,5.56c-.08,1.85-.13,3.7-.24,5.56-.11-1.85-.16-3.7-.25-5.56l-.14-5.56c-.09-3.7-.1-7.41-.12-11.11s0-7.41.12-11.11S150.43,71.79,150.63,68.09Z"/><path class="cls-9" d="M161.26,68.09c.21,3.7.3,7.41.38,11.11s.1,7.41.12,11.11,0,7.41-.12,11.11L161.5,107c-.08,1.85-.13,3.7-.24,5.56-.11-1.85-.16-3.7-.25-5.56l-.14-5.56c-.09-3.7-.1-7.41-.12-11.11s0-7.41.12-11.11S161.05,71.79,161.26,68.09Z"/><path class="cls-9" d="M171.88,68.09c.21,3.7.3,7.41.38,11.11s.1,7.41.12,11.11,0,7.41-.12,11.11l-.14,5.56c-.08,1.85-.13,3.7-.24,5.56-.11-1.85-.16-3.7-.25-5.56l-.14-5.56c-.09-3.7-.1-7.41-.12-11.11s0-7.41.12-11.11S171.68,71.79,171.88,68.09Z"/><path class="cls-9" d="M99.13,105.09c6.81-.21,13.62-.3,20.44-.38s13.63-.07,20.44-.12l20.44.11,10.22.14c3.41.08,6.81.13,10.22.25-3.41.11-6.81.16-10.22.25l-10.22.14-20.44.11c-6.81,0-13.62,0-20.44-.12S105.95,105.29,99.13,105.09Z"/><path class="cls-9" d="M99.13,97.7c6.81-.21,13.62-.3,20.44-.38s13.63-.07,20.44-.12l20.44.11,10.22.14c3.41.08,6.81.13,10.22.25-3.41.11-6.81.16-10.22.25l-10.22.14L140,98.2c-6.81,0-13.62,0-20.44-.12S105.95,97.91,99.13,97.7Z"/><path class="cls-9" d="M99.13,90.31c6.81-.21,13.62-.3,20.44-.38s13.63-.07,20.44-.12l20.44.11,10.22.14c3.41.08,6.81.13,10.22.25-3.41.11-6.81.16-10.22.25l-10.22.14L140,90.81c-6.81,0-13.62,0-20.44-.12S105.95,90.52,99.13,90.31Z"/><path class="cls-9" d="M99.13,82.93c6.81-.21,13.62-.3,20.44-.38s13.63-.07,20.44-.12l20.44.11,10.22.14c3.41.08,6.81.13,10.22.25-3.41.11-6.81.16-10.22.25l-10.22.14L140,83.43c-6.81,0-13.62,0-20.44-.12S105.95,83.13,99.13,82.93Z"/><path class="cls-9" d="M99.13,75.54c6.81-.21,13.62-.3,20.44-.38S133.2,75.08,140,75l20.44.11,10.22.14c3.41.08,6.81.13,10.22.25-3.41.11-6.81.16-10.22.25l-10.22.14L140,76c-6.81,0-13.62,0-20.44-.12S105.95,75.75,99.13,75.54Z"/><path class="cls-4" d="M152.27,23.89A2.12,2.12,0,0,1,151,20.66a12.82,12.82,0,0,0,1.85-8.17,12.9,12.9,0,0,0-25.72,1.4,12.78,12.78,0,0,0,2,6.89,2.07,2.07,0,0,1-1.37,3.1,17.81,17.81,0,0,0-14,17.39h0a4.86,4.86,0,0,0,4.86,4.86h42.75a4.86,4.86,0,0,0,4.86-4.86A17.81,17.81,0,0,0,152.27,23.89ZM140,20.33a6.44,6.44,0,1,1,6.44-6.44A6.44,6.44,0,0,1,140,20.33Z"/><path class="cls-6" d="M140,39.46A55.24,55.24,0,0,1,115.32,34a17.71,17.71,0,0,0-1.57,7.29h0a4.86,4.86,0,0,0,4.86,4.86h42.75a4.86,4.86,0,0,0,4.86-4.86A17.71,17.71,0,0,0,164.64,34,55.24,55.24,0,0,1,140,39.46Z"/><path class="cls-10" d="M17.53,88.24,3.6,98.09A5,5,0,0,0,2.41,105l63.9,90.42a5,5,0,0,0,6.91,1.19l13.93-9.84a5,5,0,0,0,1.19-6.91L24.44,89.43A5,5,0,0,0,17.53,88.24Z"/><path class="cls-11" d="M37.55,84.33h14.3a0,0,0,0,1,0,0V205a0,0,0,0,1,0,0H37.55a5,5,0,0,1-5-5V89.29a5,5,0,0,1,5-5Z" transform="translate(-75.74 50.89) rotate(-35.25)"/><circle class="cls-12" cx="76.14" cy="185.97" r="2.85" transform="matrix(0.82, -0.58, 0.58, 0.82, -93.37, 78.04)"/><line class="cls-13" x1="24.02" y1="96.78" x2="16.75" y2="101.92"/><path class="cls-14" d="M24,96.78a10.46,10.46,0,0,1-1,1,22.08,22.08,0,0,1-5,3.53,10.35,10.35,0,0,1-1.3.57,10.35,10.35,0,0,1,1-1,22.06,22.06,0,0,1,5-3.53A10.43,10.43,0,0,1,24,96.78Z"/><line class="cls-13" x1="26.09" y1="99.71" x2="21.14" y2="103.2"/><path class="cls-14" d="M26.09,99.71a5.21,5.21,0,0,1-.61.78,10.27,10.27,0,0,1-3.4,2.4,5.17,5.17,0,0,1-.94.31,5.16,5.16,0,0,1,.61-.78,10.27,10.27,0,0,1,3.4-2.4A5.2,5.2,0,0,1,26.09,99.71Z"/><line class="cls-13" x1="28.16" y1="102.64" x2="23.21" y2="106.13"/><path class="cls-14" d="M28.16,102.64a5.21,5.21,0,0,1-.61.78,10.27,10.27,0,0,1-3.4,2.4,5.17,5.17,0,0,1-.94.31,5.17,5.17,0,0,1,.61-.78,10.26,10.26,0,0,1,3.4-2.4A5.2,5.2,0,0,1,28.16,102.64Z"/><line class="cls-13" x1="30.22" y1="105.56" x2="22.95" y2="110.7"/><path class="cls-14" d="M30.22,105.56a10.41,10.41,0,0,1-1,1,22.05,22.05,0,0,1-5,3.53,10.36,10.36,0,0,1-1.3.57,10.35,10.35,0,0,1,1-1,22.07,22.07,0,0,1,5-3.53A10.44,10.44,0,0,1,30.22,105.56Z"/><line class="cls-13" x1="32.29" y1="108.49" x2="27.35" y2="111.98"/><path class="cls-14" d="M32.29,108.49a5.19,5.19,0,0,1-.61.78,10.27,10.27,0,0,1-3.4,2.4,5.17,5.17,0,0,1-.94.31,5.17,5.17,0,0,1,.61-.78,10.27,10.27,0,0,1,3.4-2.4A5.22,5.22,0,0,1,32.29,108.49Z"/><line class="cls-13" x1="34.36" y1="111.41" x2="29.41" y2="114.91"/><path class="cls-14" d="M34.36,111.41a5.21,5.21,0,0,1-.61.78,10.27,10.27,0,0,1-3.4,2.4,5.16,5.16,0,0,1-.94.31,5.17,5.17,0,0,1,.61-.78,10.27,10.27,0,0,1,3.4-2.4A5.2,5.2,0,0,1,34.36,111.41Z"/><line class="cls-13" x1="36.43" y1="114.34" x2="29.16" y2="119.48"/><path class="cls-14" d="M36.43,114.34a10.43,10.43,0,0,1-1,1,22.06,22.06,0,0,1-5,3.53,10.31,10.31,0,0,1-1.3.57,10.34,10.34,0,0,1,1-1,22.07,22.07,0,0,1,5-3.53A10.42,10.42,0,0,1,36.43,114.34Z"/><line class="cls-13" x1="38.5" y1="117.27" x2="33.55" y2="120.76"/><path class="cls-14" d="M38.5,117.27a5.21,5.21,0,0,1-.61.78,10.27,10.27,0,0,1-3.4,2.4,5.16,5.16,0,0,1-.94.31,5.17,5.17,0,0,1,.61-.78,10.27,10.27,0,0,1,3.4-2.4A5.2,5.2,0,0,1,38.5,117.27Z"/><line class="cls-13" x1="40.56" y1="120.19" x2="35.62" y2="123.69"/><path class="cls-14" d="M40.56,120.19A5.21,5.21,0,0,1,40,121a10.27,10.27,0,0,1-3.4,2.4,5.17,5.17,0,0,1-.94.31,5.17,5.17,0,0,1,.61-.78,10.27,10.27,0,0,1,3.4-2.4A5.22,5.22,0,0,1,40.56,120.19Z"/><line class="cls-13" x1="42.63" y1="123.12" x2="35.36" y2="128.26"/><path class="cls-14" d="M42.63,123.12a10.44,10.44,0,0,1-1,1,22.07,22.07,0,0,1-5,3.53,10.36,10.36,0,0,1-1.3.57,10.33,10.33,0,0,1,1-1,22.07,22.07,0,0,1,5-3.53A10.44,10.44,0,0,1,42.63,123.12Z"/><line class="cls-13" x1="44.7" y1="126.05" x2="39.75" y2="129.54"/><path class="cls-14" d="M44.7,126a5.21,5.21,0,0,1-.61.78,10.27,10.27,0,0,1-3.4,2.4,5.17,5.17,0,0,1-.94.31,5.17,5.17,0,0,1,.61-.78,10.27,10.27,0,0,1,3.4-2.4A5.22,5.22,0,0,1,44.7,126Z"/><line class="cls-13" x1="46.77" y1="128.97" x2="41.82" y2="132.47"/><path class="cls-14" d="M46.77,129a5.21,5.21,0,0,1-.61.78,10.27,10.27,0,0,1-3.4,2.4,5.19,5.19,0,0,1-.94.31,5.17,5.17,0,0,1,.61-.78,10.27,10.27,0,0,1,3.4-2.4A5.2,5.2,0,0,1,46.77,129Z"/><line class="cls-13" x1="48.84" y1="131.9" x2="41.56" y2="137.04"/><path class="cls-14" d="M48.84,131.9a10.42,10.42,0,0,1-1,1,22.07,22.07,0,0,1-5,3.53,10.31,10.31,0,0,1-1.3.57,10.34,10.34,0,0,1,1-1,22.07,22.07,0,0,1,5-3.53A10.42,10.42,0,0,1,48.84,131.9Z"/><line class="cls-13" x1="50.9" y1="134.83" x2="45.96" y2="138.32"/><path class="cls-14" d="M50.9,134.83a5.21,5.21,0,0,1-.61.78,10.27,10.27,0,0,1-3.4,2.4,5.19,5.19,0,0,1-.94.31,5.18,5.18,0,0,1,.61-.78,10.26,10.26,0,0,1,3.4-2.4A5.2,5.2,0,0,1,50.9,134.83Z"/><line class="cls-13" x1="52.97" y1="137.75" x2="48.03" y2="141.25"/><path class="cls-14" d="M53,137.75a5.21,5.21,0,0,1-.61.78,10.27,10.27,0,0,1-3.4,2.4,5.17,5.17,0,0,1-.94.31,5.17,5.17,0,0,1,.61-.78,10.27,10.27,0,0,1,3.4-2.4A5.2,5.2,0,0,1,53,137.75Z"/><line class="cls-13" x1="55.04" y1="140.68" x2="47.77" y2="145.82"/><path class="cls-14" d="M55,140.68a10.42,10.42,0,0,1-1,1,22,22,0,0,1-2.38,1.94,21.82,21.82,0,0,1-2.62,1.59,10.34,10.34,0,0,1-1.3.57,10.31,10.31,0,0,1,1-1,22.06,22.06,0,0,1,5-3.53A10.42,10.42,0,0,1,55,140.68Z"/><line class="cls-13" x1="57.11" y1="143.6" x2="52.16" y2="147.1"/><path class="cls-14" d="M57.11,143.6a5.21,5.21,0,0,1-.61.78,10.27,10.27,0,0,1-3.4,2.4,5.17,5.17,0,0,1-.94.31,5.16,5.16,0,0,1,.61-.78,10.27,10.27,0,0,1,3.4-2.4A5.2,5.2,0,0,1,57.11,143.6Z"/><line class="cls-13" x1="59.18" y1="146.53" x2="54.23" y2="150.03"/><path class="cls-14" d="M59.18,146.53a5.2,5.2,0,0,1-.61.78,10.28,10.28,0,0,1-3.4,2.4,5.17,5.17,0,0,1-.94.31,5.17,5.17,0,0,1,.61-.78,10.27,10.27,0,0,1,3.4-2.4A5.23,5.23,0,0,1,59.18,146.53Z"/><line class="cls-13" x1="61.24" y1="149.46" x2="53.97" y2="154.6"/><path class="cls-14" d="M61.24,149.46a10.42,10.42,0,0,1-1,1,22.08,22.08,0,0,1-5,3.53,10.35,10.35,0,0,1-1.3.57,10.35,10.35,0,0,1,1-1,22.06,22.06,0,0,1,5-3.53A10.43,10.43,0,0,1,61.24,149.46Z"/><line class="cls-13" x1="63.31" y1="152.38" x2="58.37" y2="155.88"/><path class="cls-14" d="M63.31,152.38a5.21,5.21,0,0,1-.61.78,10.28,10.28,0,0,1-3.4,2.4,5.17,5.17,0,0,1-.94.31,5.17,5.17,0,0,1,.61-.78,10.27,10.27,0,0,1,3.4-2.4A5.23,5.23,0,0,1,63.31,152.38Z"/><line class="cls-13" x1="65.38" y1="155.31" x2="60.43" y2="158.81"/><path class="cls-14" d="M65.38,155.31a5.21,5.21,0,0,1-.61.78,10.27,10.27,0,0,1-3.4,2.4,5.17,5.17,0,0,1-.94.31A5.17,5.17,0,0,1,61,158a10.27,10.27,0,0,1,3.4-2.4A5.2,5.2,0,0,1,65.38,155.31Z"/><line class="cls-13" x1="67.45" y1="158.24" x2="60.18" y2="163.37"/><path class="cls-14" d="M67.45,158.24a10.44,10.44,0,0,1-1,1,22.07,22.07,0,0,1-5,3.53,10.32,10.32,0,0,1-1.3.57,10.34,10.34,0,0,1,1-1,22.07,22.07,0,0,1,5-3.53A10.42,10.42,0,0,1,67.45,158.24Z"/><line class="cls-13" x1="69.52" y1="161.16" x2="64.57" y2="164.66"/><path class="cls-14" d="M69.52,161.16a5.2,5.2,0,0,1-.61.78,10.27,10.27,0,0,1-3.4,2.4,5.16,5.16,0,0,1-.94.31,5.17,5.17,0,0,1,.61-.78,10.27,10.27,0,0,1,3.4-2.4A5.2,5.2,0,0,1,69.52,161.16Z"/><line class="cls-13" x1="71.58" y1="164.09" x2="66.64" y2="167.58"/><path class="cls-14" d="M71.58,164.09a5.21,5.21,0,0,1-.61.78,10.27,10.27,0,0,1-3.4,2.4,5.16,5.16,0,0,1-.94.31,5.17,5.17,0,0,1,.61-.78,10.27,10.27,0,0,1,3.4-2.4A5.22,5.22,0,0,1,71.58,164.09Z"/><line class="cls-13" x1="73.65" y1="167.02" x2="66.38" y2="172.15"/><path class="cls-14" d="M73.65,167a10.44,10.44,0,0,1-1,1,22.07,22.07,0,0,1-5,3.53,10.36,10.36,0,0,1-1.3.57,10.35,10.35,0,0,1,1-1,22.07,22.07,0,0,1,5-3.53A10.44,10.44,0,0,1,73.65,167Z"/><line class="cls-13" x1="75.72" y1="169.94" x2="70.77" y2="173.44"/><path class="cls-14" d="M75.72,169.94a5.21,5.21,0,0,1-.61.78,10.27,10.27,0,0,1-3.4,2.4,5.16,5.16,0,0,1-.94.31,5.16,5.16,0,0,1,.61-.78,10.27,10.27,0,0,1,3.4-2.4A5.22,5.22,0,0,1,75.72,169.94Z"/><line class="cls-13" x1="77.79" y1="172.87" x2="72.84" y2="176.36"/><path class="cls-14" d="M77.79,172.87a5.21,5.21,0,0,1-.61.78,10.27,10.27,0,0,1-3.4,2.4,5.17,5.17,0,0,1-.94.31,5.17,5.17,0,0,1,.61-.78,10.26,10.26,0,0,1,3.4-2.4A5.2,5.2,0,0,1,77.79,172.87Z"/><path class="cls-15" d="M21,86.94q2.47-1.75,5-3.29"/><path class="cls-16" d="M36.24,78.38A85.11,85.11,0,0,1,147.4,121"/><path class="cls-15" d="M149.6,126.22q1.07,2.82,1.93,5.68"/><circle class="cls-8" cx="26.7" cy="50.67" r="3.28"/><circle class="cls-17" cx="25.84" cy="50.67" r="3.73"/><polygon class="cls-18" points="53.84 11.58 48.79 8.82 53.84 6.05 56.61 1 59.37 6.05 64.43 8.82 59.37 11.58 56.61 16.64 53.84 11.58"/><g class="cls-19"><g class="cls-20"><g class="cls-20"><path class="cls-21" d="M100.13,139.07c2.06-.51,2.39-7.34,2.9-8.21,1.7-3.95-2.74-18.38-1.8-18.4,1.32.16,7.58-3.11,7.88-4.56a12.34,12.34,0,0,0-2.32-10c-.9-1.45-1.55-1.66-1.34-2.31,0-.26-2.37-1-3.63-2.88-.79-1.3-.47-3-1.41-4.19-1.34-2.29-2.73-9.64-3.53-12.18-1.53-4.85-1.84-7.27-1.14-11.12A12,12,0,0,0,96,61.15a32.21,32.21,0,0,1-.17-4.06c.06-2.92-.28-5,.06-7.79.73-2.58,1.31-4.88,1.93-7a1.66,1.66,0,0,0-.12-.85c-.15-.29.16-.68.19-.93a1.1,1.1,0,0,1,1.44-.25c.14.11.2.26.3.32s.22.06.76-.08l.28-.09.42-.15a2.14,2.14,0,0,0,.63-.42,1.08,1.08,0,0,0,.32-.54.51.51,0,0,0,0-.43c-.75-1-2.07-2.15-2.9-3.11a5.29,5.29,0,0,0-4-1.61A5.86,5.86,0,0,0,91,36.59a16.83,16.83,0,0,0-2.37,4.35,14.9,14.9,0,0,1-3.5,5.19,29.52,29.52,0,0,1-4.87,3.77c-2.58,1.43-6.63,2.77-6.31,6.6a21.38,21.38,0,0,0,.68,3.2c.15.57.28.89.42,1.31s.27.8.39,1.2a11.52,11.52,0,0,1,.5,2.45,7.84,7.84,0,0,1-.31,2.72,40.63,40.63,0,0,0-2.16,7.41,13.68,13.68,0,0,0-.64,2.4c.35,3-.56,6.62,1.88,8.72.82,3.39-.17,5.13,1.53,7.83,2.27,3.44,4.81,6.92,5.4,11a18.85,18.85,0,0,1,0,6.66c-.09.79-2.44,3.57-3.2,4.41-1.39,1.56-.48,3.94.53,5.53a24.6,24.6,0,0,1,4.2,8.12c.13,1.08-.53,2.07-.55,3.27.31,2.84,1.92,4.91,2.67,7.41,1.23,9.3,2.44,8.07,2.26,8.44,0,.94-1.37,1.29-1.65,2.46a6,6,0,0,0,1.33,4.19c2.14,3.08,4.32,6.85,3,10.69.3-.23.71-.31.75-.57,1.78-5.39,4.88-9.67,4.69-15.45a7.76,7.76,0,0,1-.55-1.95,24.31,24.31,0,0,0-.24-3.38C94.86,142.68,98.34,139.51,100.13,139.07Z"/><path class="cls-22" d="M88.67,41A17.29,17.29,0,0,1,91,36.7a5.86,5.86,0,0,1,4.12-2.39,5.22,5.22,0,0,1,4,1.58c.48.47.87,1,1.45,1.54A15.83,15.83,0,0,1,102,39c.16.2.06.63-.29.95a3.42,3.42,0,0,1-1.31.64c-.48.13-.59.14-.69.07s-.15-.22-.29-.33a1.1,1.1,0,0,0-1.44.26,2,2,0,0,1-.16.45.65.65,0,0,0,0,.49,1.65,1.65,0,0,1,.12.85c-.62,2.09-1.19,4.39-1.92,7-.33,2.8,0,4.87-.05,7.79a32.37,32.37,0,0,0,.17,4.07,12,12,0,0,1-.27,4.12c-.69,3.85-.39,6.28,1.14,11.12.8,2.54,2.19,9.88,3.53,12.18.94,1.18.62,2.89,1.41,4.18a35.28,35.28,0,0,0-2.72,3c-3.4-7.64-6.8-15.27-10.35-22.79-.08-2.58-.21-5.15-.34-7.71-.05-1.29-.16-2.55-.24-3.81L88,57.67c-.2-2.67-.32-5.37-.25-8.12A41.54,41.54,0,0,1,88.67,41Z"/><path class="cls-23" d="M99.49,92.95s4.88,10.3-.47,9.27a68.86,68.86,0,0,1-6.64-4.83c-3.33-2.77-6.72-6.24-6.87-9.12,0,0-.21-4.14-.52-6.3a10.78,10.78,0,0,0,.9-2.49,10.54,10.54,0,0,0-.19-5.77L85.15,71c-.32-1.66-.76-3.85-1.12-6.09-.18-1.12-.39-2.19-.55-3.23s-.27-2-.37-3c-.18-2-.06-3.45.39-3.8a40,40,0,0,1,.64-4.23c.45-2.25,1.25-4.79,2.12-5.76a17.07,17.07,0,0,0,2.13-1.73,9.46,9.46,0,0,0,2.74-4.22,11,11,0,0,1,1.27-1.24,7.43,7.43,0,0,1,3-1.59,2.55,2.55,0,0,1,2.24.32c.35.37.22.74-.3,1.32a5.24,5.24,0,0,0-.41,1c-.18.6-.3,1.42-.42,2,0,0-.13.21-.33.62a16.1,16.1,0,0,0-.75,1.87,38.63,38.63,0,0,0-1.48,6.7c-.38,2.6-.59,5.31-.79,7.45a12.38,12.38,0,0,1-.72,4.05l-.12,1L92,65.19a70.82,70.82,0,0,0-.16,8.88C92.24,80.9,93.88,88.76,99.49,92.95Z"/><path class="cls-24" d="M101,93.29s6,6.69,1.71,10.35c0,0-5.09,10.73-8.32,7.53a66.7,66.7,0,0,1-6.42-7.62c-3.27-4.5-6.62-10.37-7-15.91,0,0,0-1.2-2-3.39,0,0-2.16-5.9.48-8.51,0,0,.88-1.85,1.66-4.1s1.42-4.88,1-6.47a8,8,0,0,0,.9-1.55A3.06,3.06,0,0,0,83,60.8l.8,2.7c.46,1.65,1,4,1.47,6.33.91,4.77,1.46,9.87.2,11A11.39,11.39,0,0,0,85.22,86c.44,3.09,2.1,7.22,6.87,11.44C92.1,97.4,99.28,99.94,101,93.29Z"/><path class="cls-25" d="M108.29,98.92a39.15,39.15,0,0,1,2.91,3.71,13.93,13.93,0,0,1,.36,2.6,5.8,5.8,0,0,1-.75,3c-2.27,3.5-2.37,9.07-5.27,12.07a3,3,0,0,0-.57,1.41c.12.15.31.71.43.86.07,1.62-.13,3.2.09,4.71.5,2.48-.74,4.87-2.09,7.11a42.52,42.52,0,0,0-1.73,4.21c-1,2.42-4.2,2.55-4.77,4.89-1.14,3.74,1,7.09.08,10.86a33.81,33.81,0,0,1-2.14,6.15c-1,1.48-1.61,3.14-2.5,4.76a3.82,3.82,0,0,1-1.64,1.25c-.38-.18-.12-1.09-.32-1.65-.47-1.54,1.1-2.27,1.77-3.25.7-1.25.38-2.9.58-4.47a5.61,5.61,0,0,1,1-1.74c.78-.84.27-2.11,0-3.34-.47-1.53.67-3.13.61-4.74,0-2.14-1.63-4-.87-5.73-.72,1.51-.1-6.57.22-4.92-.12-.15.48-.61.89-.69.26,0,.67,0,.79.1.92,1.19,2.53,1.12,3.81,1.56.15-.12.42-4.37,1.55-6,1-1.22,2-2.29,2.22-3.88-.08-.41-.72-.63-.81-1,0-.94-5.09-12.23-4.67-13.51.36-.76,1.27-1.72,1.92-1.51,1.84.22,2.67-1.15,4.2-1.64.41-.08.91.24,1.32.16,1.11-.4,2.41-1.19,2.65-2.1a7.43,7.43,0,0,0,.56-4.77Z"/><path class="cls-26" d="M74.68,59.72a13.93,13.93,0,0,1,1.07,3.2,10.14,10.14,0,0,1,.1,3.34,11.15,11.15,0,0,1-1.27,4s-.36,1.15-.69,2.42a10.45,10.45,0,0,0-.52,3.17l-.55,1.5s-.32,7.22,1.83,8.52c0,0,.81,3.52.41,4.07,0,0-.24,2.8,2.89,6.28"/><path class="cls-27" d="M106.63,129.56c-.33,1.21-2.38,6.94-3.56,8.49-1.73,2.46-3.45,4.74-5.37,7.18a.83.83,0,0,0,0,.8c1,1.56.27,3.43.79,4.93.18.65.64,1.24.55,1.95a24.72,24.72,0,0,1-4,10.19c-.88,1.31-2.1,2.4-3.16,3.69-.3.23-.62.63-1,.58s-.11-.55-.2-.87c.18-.38.58-.68.82-1.18.57-.91.63-2.06,1.27-2.87a27.69,27.69,0,0,0,1.77-2.62,7.9,7.9,0,0,0,.53-2,30.4,30.4,0,0,0,.88-7.48c-.94-1-.21-2.53-.15-3.68a6.86,6.86,0,0,1,.41-1.11c.13-1.06-.26-2.18.46-2.89a25.08,25.08,0,0,0,4.23-4.55,50.62,50.62,0,0,0,3.88-8.9c.61-2.07,0-4.12.31-6.13C105.13,122.93,107.55,124.57,106.63,129.56Z"/></g></g></g><g class="cls-19"><g class="cls-20"><g class="cls-20"><path class="cls-28" d="M152.41,28.87a3.26,3.26,0,0,0-1.35-1.65c-.45-.26-.88-.36-1-.58-.55-.72-1.34.17-2.36,1.1s-2.09,1.89-2.11,1.42c0-1.32-1.31-7.5-1.75-7.79-1.13-.76-2.26.35-3.08,2.44-.43.91-.48,1.56-.68,1.35a22.05,22.05,0,0,1-.86,3.63c-.4.79-.92.46-1.29,1.38-.72,1.34-3,2.54-3.89,3.19-1.64,1.27-2.54,1.36-3.64.32-.8-1-1.73-.52-2.72-1s-1.94-.26-3.13-.61a5.72,5.72,0,0,0-3.63-1,1,1,0,0,0-.5.43c-.12.24-.49.17-.67.27-1.11-.32-2.33-1.48-3.4-.94a1.13,1.13,0,0,0-.39,1.31,57.32,57.32,0,0,0,3.15,6.16,4.12,4.12,0,0,0,2.36,2c.53.28.94,1.29,1.19,2.65a29.17,29.17,0,0,1,.35,4.69c0,1.28-.11,2.92-.12,4.23s0,2.28.47,2.27c1-.2,2.54-2,3.84-.45a8.66,8.66,0,0,0,3.15,2.87,4.88,4.88,0,0,0,1.21.83c1.65-.13,3.41.91,4.5-1.48,1.6-.76,2.35.25,3.51-1.45,1.44-2.28,2.7-4.85,4.16-5.51a2.91,2.91,0,0,1,2.53-.14,18.33,18.33,0,0,1,2,3.05c.79,1.33,1.82.3,2.44-.8a16.1,16.1,0,0,1,3.07-4.82c.46-.24,1.06.29,1.63.15,1.25-.68,1.76-2.56,2.55-3.7,1.78-1.44,2.25-2.5,2.39-3.07s-.09-.76,0-.73c.33-.23,1.2.86,1.82.77.74-.27.91-1.35.75-2.28-.14-1.29-.36-2.59-.38-3.57s.2-1.64,1.14-1.9c-.29-.09-.64-.3-.73-.24a9.17,9.17,0,0,1-3.83-.1c-1.16-.21-2.05-.39-2.62.13a1.55,1.55,0,0,1-.16.77,2.69,2.69,0,0,0-.72.7c-.24.15-.93-.47-1.6-1.36A14.53,14.53,0,0,1,152.41,28.87Z"/><path class="cls-29" d="M121.48,40.17a4.11,4.11,0,0,1-2.36-2A56.92,56.92,0,0,1,116,32a1.12,1.12,0,0,1,.39-1.31c1.07-.54,2.29.62,3.4.95.18-.1.54,0,.67-.27a1,1,0,0,1,.5-.43,5.73,5.73,0,0,1,3.63,1c1.19.35,2,.21,3.13.62s1.92,0,2.72,1c1.1,1,2,1,3.63-.32.86-.65,3.17-1.85,3.89-3.19.37-.92.89-.59,1.29-1.38a26.74,26.74,0,0,0,1,2.72,54,54,0,0,1-8.38,9.7C127.91,40.76,124.41,40,121.48,40.17Z"/><path class="cls-30" d="M139.26,31.14a8.62,8.62,0,0,1,1.59-1.79c.78-.57,1.55-.48,1.46,2.21,0,0-.59,3.32-1.5,6.68s-2.22,6.74-3.37,6.85a22.85,22.85,0,0,0-2.53.37,4.08,4.08,0,0,0-.94-1,2.05,2.05,0,0,0-2.37-.16s-.47.14-1.19.31-1.63.37-2.5.5c-1.77.26-3.23.37-3.26-.58a8,8,0,0,1-1-.81,4.4,4.4,0,0,1-1.24-1.85A11.43,11.43,0,0,0,122,40c-.28-.91-.75-1.75-1.25-1.51l-1.57-1.9c-.76-1-1.46-2-.52-2.46a6.93,6.93,0,0,1,1.68-1.27s.58.06,1.4.24a18,18,0,0,1,2.85.89c2,.8,3.74,1.9,3.84,2.52a7.64,7.64,0,0,0,1.19.79,7,7,0,0,0,3,.89C135.06,38.32,138,36.74,139.26,31.14Z"/><path class="cls-31" d="M139.37,29.67a13.21,13.21,0,0,1,1.16-2.48c.65-1,1.46-1.43,2.14.69a19.66,19.66,0,0,1,1.76,2.86c.8,1.63,1.55,3.66,1.1,5.31,0,0-.22.81-.64,2s-1,2.86-1.78,4.53c-1.48,3.32-3.67,6.75-6,7.06,0,0-.48,0-1.55,2a4,4,0,0,1-1.54.63,2,2,0,0,1-2.33-1.53s-.79-1-1.63-2-1.73-1.88-2.38-1.66c0,0-.55-2.32-1.34-1.46,0,0,.42-.2,1.1-.46a21.92,21.92,0,0,1,2.63-.8,12.09,12.09,0,0,1,2.88-.38c.82,0,1.42.27,1.6.91a2,2,0,0,0,2,.45c1.24-.38,2.9-2,4.29-6.82a27.39,27.39,0,0,0,.09-3.8C140.8,32.71,140.4,30.5,139.37,29.67Z"/><path class="cls-32" d="M141,22.32c.34-.94.69-2.15,1.07-2.95.21-.33.57-.22.82-.4s.71.36,1,.71a8.21,8.21,0,0,0,1.85,2.27,6.67,6.67,0,0,1,1.68,2.69c.15.31.26.47.39.52,0-.12.13-.34.15-.46.34-.13.71,0,1-.28.38-.6,1,.5,1.73,1.67a10.85,10.85,0,0,0,1.21,1.38c.71.74,2,3.72,2.73,4s1-.16,1.19-.64.35-1,.93-.89c.8.21,1.36.18,2.46.51a8.28,8.28,0,0,0,2.75.45,7.59,7.59,0,0,1,1.58.54c.28.26-.1.42-.07.71,0,.78-1.37,0-2.06-.16s-.89.46-1.4.68a2.6,2.6,0,0,1-1.06-.41c-.67-.44-.62.19-.79.62-.12.68-1.13,0-1.49.29-.51.32-.35,2.07-1.18,1.62.36.23-.11.49-.64.59s-1.09,0-.89-.2c0,.13-.32-.39-.47-.78a5.22,5.22,0,0,1-.2-.76,16.54,16.54,0,0,0-.79-3.77,2.73,2.73,0,0,1-1.71-1.06c-.49-.85-.92-1.84-1.29-2-.07.1,0,.74-.09.85s-.6,1.44-1.38,2.77S146.24,33,146,32.83a3.44,3.44,0,0,1-.59-1.88,24.17,24.17,0,0,0-.72-4.16c0-.41,0-.91,0-1.32a6.66,6.66,0,0,0-.75-2.61c-.49-.69-1.11-.88-1.55-.49Z"/><path class="cls-33" d="M124.21,53.66a2.71,2.71,0,0,1,.34-.29,2.47,2.47,0,0,1,.93-.37c.79-.11,1.75.22,2.77,2-.08,0,2,1.87,2.64,1.72l.74.66a7.31,7.31,0,0,0,2,.11A2.57,2.57,0,0,0,136,55.9s.42-.18.86-.32.9-.23,1,0a1.16,1.16,0,0,0,.81-.26,5.7,5.7,0,0,0,1.85-2.63"/><path class="cls-34" d="M149.07,23.19a30.94,30.94,0,0,1,2.21,3,26.1,26.1,0,0,0,3.3,4.32c.11.08.2.08.17-.08-.19-1.11.52-.65.49-1.29,0-.23-.17-.68,0-.69.78,0,2.14.69,4.17,1.32a22.24,22.24,0,0,0,3.14.93,3.44,3.44,0,0,1,.93.34c.24.13,0,.23,0,.38-.23,0-.61-.1-.9-.09-.64-.07-.9.21-1.55,0s-1.27-.46-1.79-.59a1.44,1.44,0,0,0-.72,0,3.22,3.22,0,0,0-2,.57c.28,1-.45.57-.73.67-.1,0-.28-.14-.44-.21s-.4.52-.86-.05c-1-1.3-1.78-2.51-2.47-3.51-.29-.41-.86-1.12-1.4-1.78a17.42,17.42,0,0,0-1.2-1.42c-.49-.5-.79.22-1.29,0C148,24.94,148.13,22.5,149.07,23.19Z"/></g></g></g><g class="cls-35"><g class="cls-20"><g class="cls-20"><path class="cls-36" d="M157.11,135.48a1.81,1.81,0,0,0,1.07.8,1.87,1.87,0,0,1,.78.52c.37.54.86.37,1.58.23s1.5-.28,1.51,0c-.3.58-.72,3.85-.44,4.15.73.81,1.74.78,2.95.33.56-.17.8-.4.88-.22a6.23,6.23,0,0,1,1.7-1c.52-.08.81.33,1.35.2a4.34,4.34,0,0,1,1.91.51,9.36,9.36,0,0,1,1,.52l.73.43c1.37.76,1.85,1.55,1.8,2.76-.19.94.3,1.55.19,2.45a9.31,9.31,0,0,1-.16,2.4c-.41.77-.79,1.33-1.1,2a.55.55,0,0,0,0,.35c.06.12-.08.29-.11.41-.59.44-1.44.43-1.82.85a.54.54,0,0,0,.07.66,5.19,5.19,0,0,0,3.56,1.3,2.35,2.35,0,0,0,1.51-.63,7.88,7.88,0,0,0,1.09-1.33c.94-1.35,2.77-2.14,4.55-3,1.33-.5,3.44-1,3.32-3a13.11,13.11,0,0,0-.94-3.14,10,10,0,0,1-.8-3.09,11.92,11.92,0,0,0-.86-4.62,8.67,8.67,0,0,0-.59-1.51l-.88-1.1a9.07,9.07,0,0,0-.88-1,2.78,2.78,0,0,0-2.13-1c-1.56-.92-1.95-1.85-3.51-2-2-.06-3.94.24-5.54-.28a6.84,6.84,0,0,1-2.39-1.19c-.16-.1-.24-.47-.63-1l-.89-1.4a3.08,3.08,0,0,0-3.15-1c-.38.13-.74.23-1.09.33s-.69.23-1,.31l-2,.47c-.49,0-1-.36-1.61-.32-1.36.27-2.09,1.48-2.75,2.53a7.47,7.47,0,0,0-1.27,2.1,5.11,5.11,0,0,0-.35,1.19c-.07.51.07.53,0,.56-.21.35-.77-.05-1.15.32a2.85,2.85,0,0,0-.44,2.08l.14,1.33a7.11,7.11,0,0,1,.06,1.15,2.2,2.2,0,0,1-.9,1.81c.17,0,.36.08.42,0,.85-.61,1.82-1.07,2.66-1.57a3.6,3.6,0,0,0,1.79-1.54,2.26,2.26,0,0,1,.09-.71,5.54,5.54,0,0,0,.43-1c.14-.26.6-.17,1.06.17A4.3,4.3,0,0,1,157.11,135.48Z"/><path class="cls-37" d="M177.19,153.13a7.89,7.89,0,0,1-1.08,1.33,2.37,2.37,0,0,1-1.5.63,5.19,5.19,0,0,1-3.56-1.3.53.53,0,0,1-.07-.66c.38-.42,1.23-.41,1.81-.85,0-.11.16-.28.1-.4a.55.55,0,0,1,0-.35c.31-.71.68-1.27,1.1-2a9.38,9.38,0,0,0,.16-2.39c.11-.89-.38-1.5-.19-2.44.05-1.21-.44-2-1.8-2.75l-.73-.42a9.54,9.54,0,0,0-1-.52,4.35,4.35,0,0,0-1.91-.51c-.54.13-.83-.29-1.35-.2a8.69,8.69,0,0,0,.07-1.63,16,16,0,0,1,9,2.2,14.73,14.73,0,0,1,1.9,5.93A12.66,12.66,0,0,1,177.19,153.13Z"/><path class="cls-38" d="M167.81,139.29s-.25,0-.59,0a7.45,7.45,0,0,1-1.15-.12c-.76-.16-1.34-.56-.54-1.64a18.29,18.29,0,0,1,3.12-2c1.73-.88,3.89-1.38,4.86-.61,0,0,1.37,1.08,2.08,1.72a6.81,6.81,0,0,0,.34,1.11,5.87,5.87,0,0,0,1.5,2.1,13.63,13.63,0,0,1,2.22,3.51c.87,2,1.15,4.27.64,4.56a9.21,9.21,0,0,1-.43,1.78,4.67,4.67,0,0,1-1.32,2.2,9.08,9.08,0,0,0-1.11.46,2.66,2.66,0,0,0-1.44,1.26s-.23.15-.55.33a7.14,7.14,0,0,1-1.21.43c-.88.14-1.52,0-1.09-.66l.05-.15.09-.38c.07-.29.16-.63.2-.85a5.85,5.85,0,0,0,.56-.81,9.49,9.49,0,0,0,.94-2.08c.53-1.67.55-3.63.8-3.89a2,2,0,0,0,0-.36c0-.23,0-.57-.05-1a7.41,7.41,0,0,0-1.08-3,5.91,5.91,0,0,0-2.93-2.34A4.72,4.72,0,0,0,167.81,139.29Z"/><path class="cls-39" d="M167.28,139.82s-.21.08-.52.17a6.38,6.38,0,0,1-1.08.22c-.76.07-1.48-.11-1.45-1.31a18.36,18.36,0,0,1-.71-2c-.29-1.08-.46-2.3.39-2.79,0,0,.41-.24,1.11-.57a16.24,16.24,0,0,1,2.82-1,11.33,11.33,0,0,1,3.77-.38,6.84,6.84,0,0,1,3.64,1.32,1.1,1.1,0,0,0,.39.18,5.25,5.25,0,0,0,1.48.22,2.9,2.9,0,0,1,.44.25,7.29,7.29,0,0,1,.94.72,4.53,4.53,0,0,1,.87,1.15,2.44,2.44,0,0,1,.27,1.46l.12.71.21,1.63a11.11,11.11,0,0,0,.6,3.28,4.76,4.76,0,0,0-.28.85,1.7,1.7,0,0,0,.17,1.4,24.2,24.2,0,0,0-2.11-3.88c-.3-.46-.62-.92-.95-1.34s-.63-.82-.9-1.19c-.54-.73-.88-1.25-.79-1.65a2.77,2.77,0,0,0-.28-.56,3.75,3.75,0,0,0-1.11-1.15c-1.09-.75-3-1.25-5.6-.06a6.81,6.81,0,0,0-1.16,1.51A3,3,0,0,0,167.28,139.82Z"/><path class="cls-40" d="M164,142c-.52.24-1.07.59-1.57.77-.24.05-.45-.14-.68-.17s-.45-.45-.56-.71a3.42,3.42,0,0,0-.47-1c-.11-.15-.22-.3-.34-.44s0-.18,0-.28c0-.36,0-.77-.06-1.57a.62.62,0,0,0-.11-.35c0,.05-.09.13-.12.19s-.33-.19-.48-.12-.51-.58-1.07-1.34a2.35,2.35,0,0,0-1-.72c-.54-.25-1.42-1.89-1.92-1.64s-.6.71-.73,1.23a2.06,2.06,0,0,1-.65,1.3c-.27.14-.52.31-.79.47a8.35,8.35,0,0,1-1,.58,18.69,18.69,0,0,0-1.92.85,2,2,0,0,1-.93,0c-.13-.15.14-.37.15-.59.07-.6.87-.43,1.33-.57s.69-.82,1-1.23a1.47,1.47,0,0,1,.71-.21c.44,0,.43-.49.54-.92.08-.61.74-.62,1-1.07s.12-1.87.69-2c-.24,0,0-.46.48-.78s1-.35.77-.16c0-.09.28.2.38.43a2,2,0,0,1,.12.46,6.37,6.37,0,0,0,.43,2.36,3.86,3.86,0,0,1,.57,0,1.43,1.43,0,0,1,.88.66,8.38,8.38,0,0,0,.81,1.44c.05,0,.07-.37.13-.39a10.34,10.34,0,0,1,1.26-.87c.71-.38,1.71-.59,1.82-.42s.25.81,0,1.07c-.45.8-.22,1.37-.42,2.12-.07.2-.27.37-.33.57-.13.56-.2,1.24,0,1.46a1.35,1.35,0,0,0,1.07.88C163.32,141.56,163.63,141.78,164,142Z"/><path class="cls-41" d="M184.68,145.57l-.25-.54a11.48,11.48,0,0,1-.51-1.4,13.09,13.09,0,0,1-.68-4.47l-.07-.46a8.36,8.36,0,0,0-.24-1.05,5.82,5.82,0,0,0-.77-1.9l-.32-1a11.57,11.57,0,0,0-1.39-1.72c-.79-.8-1.78-1.48-2.41-1.32l-.82-.53c-.42-.27-.84-.58-.89-.74a2.7,2.7,0,0,0-.8-.47,4.43,4.43,0,0,0-2.48-.19"/><path class="cls-42" d="M159.41,138.9a7,7,0,0,0-.56-.89,11.94,11.94,0,0,0-.92-1,6.08,6.08,0,0,0-2.3-1.59c-.07,0-.13.06-.1.17.15.79-.32.85-.32,1.37,0,.2.1.48,0,.58a3.56,3.56,0,0,1-1.19.68,10,10,0,0,1-2,.87c-.61.19-1.33.22-2,.35-.17,0-.38,0-.52-.06s.05-.2.07-.32.37-.07.56-.16c.4-.14.64-.48,1.05-.57a10.25,10.25,0,0,0,1.23-.37,2.34,2.34,0,0,0,.57-.47,5,5,0,0,0,1.4-1.59c-.19-.61.29-.72.46-1,.06-.07.18-.05.28-.09.18-.19.23-.66.54-.47.66.48,1.23,1,1.77,1.45a8,8,0,0,1,1.1,1,10.44,10.44,0,0,1,.78,1.08c.26.41.46.14.68.41a2.31,2.31,0,0,1-.16.55C159.73,139.05,159.64,139.22,159.41,138.9Z"/></g></g></g><g class="cls-35"><g class="cls-20"><g class="cls-20"><path class="cls-43" d="M62.84,170.69c.68-.89-2-5.77-2.21-6.48-.49-1.59-2.77-4.56-4.92-7.08s-4.15-4.66-3.95-4.81c.62-.27,1.71-4.23,1.16-5.26a14.28,14.28,0,0,0-5.52-5.86c-1-.68-1.39-.63-1.61-1.11a8.68,8.68,0,0,1-2.82-.81c-.93-.61-1.59-1.81-2.52-2.29-1.61-1.09-5.6-5.4-7.13-6.79a24.52,24.52,0,0,1-5.66-6.77c-1-2.06-2.44-3.33-3.72-5.26s-2.59-3.25-4-5.23A45,45,0,0,0,16,107.32a3,3,0,0,0-.72-.56c-.24-.11-.6-.63-.84-.85-1.08-1.68-1.73-3.49-3.07-4.91-.37-.4-1.09-.83-1.2-.53a10,10,0,0,0,0,5.28c.39,1.82,1.7,3.47,2.9,5.3a10.11,10.11,0,0,1,1.3,7.45C14,120.1,13,122,14.58,123.9c2,2.24,4.42,3.76,5.76,6.56A51.68,51.68,0,0,0,23,135.94a16.7,16.7,0,0,0,.89,1.75c1.59,1.86,2.88,4.44,4.87,5.08,1.92,1.94,2.31,3.35,4.25,4.59,2.5,1.55,5.14,3.06,7.21,5.52a22.56,22.56,0,0,1,3,4.32,16.82,16.82,0,0,1,.62,3.78c.12,1.41,1.52,2.7,2.61,3.46a21.93,21.93,0,0,1,5.19,4.18c.5.68.66,1.51,1.12,2.31,1.25,1.81,2.83,2.76,4.07,4.27,1,1.49,1.82,2.58,2.29,3.24a18.18,18.18,0,0,0,1.1,1.46c.48.54.53.34.55.5.3.67-.22,1.21,0,2.12a6.64,6.64,0,0,0,2,2.82c1,.92,2.1,1.94,3.11,3a28.2,28.2,0,0,1,2.83,3.68c0-.25.07-.44-.06-.61a18.84,18.84,0,0,1-1.95-5.81,28.31,28.31,0,0,0-1.81-6,9.75,9.75,0,0,1-.88-1.32,19.23,19.23,0,0,0-1.3-2.46A7,7,0,0,1,62.84,170.69Z"/><path class="cls-44" d="M13.15,111.08c-1.2-1.84-2.51-3.49-2.9-5.31a10,10,0,0,1,0-5.28c.11-.31.83.13,1.2.53,1.34,1.42,2,3.23,3.07,4.9.24.23.6.75.84.85a3,3,0,0,1,.72.56A45,45,0,0,1,20,113c1.41,2,2.61,3.24,4,5.23s2.7,3.2,3.72,5.27a24.55,24.55,0,0,0,5.66,6.77c1.52,1.39,5.51,5.7,7.13,6.79.93.49,1.59,1.69,2.52,2.29,0,0,0,.9.3,2.75-4.92-4-9.85-7.86-14.85-11.66Q21,120.62,13.15,111.08Z"/><path class="cls-45" d="M42.11,140.08a29.15,29.15,0,0,1,3,2.74c1.35,1.43,2.37,3,1,3.42A41.35,41.35,0,0,1,41.27,145c-2.62-.84-5.62-2.08-7-3.89,0,0-2-2.6-3.15-3.9a13.6,13.6,0,0,0-3.6-5.53L26,130.09c-.92-1-2.14-2.29-3.36-3.64-2.44-2.7-4.89-5.56-4.83-6.24,0,0-3.15-4.8-3.52-6.37a7.24,7.24,0,0,0-1.68-4.78s-.85-1.82-1.36-3.29-.69-2.56.7-1.12c0,0,1.8,1.52,2.64,2.37,0,0,2.5,3.41,5,7s4.9,7.32,5,7.88a84.34,84.34,0,0,0,5.69,8.28C33.56,134.43,37.89,139,42.11,140.08Z"/><path class="cls-46" d="M42.87,139.87a14.56,14.56,0,0,1,2.76,1.75c1.37,1.11,2.75,2.67,2.71,4.49a34.49,34.49,0,0,1,1.06,4.11c.36,2,.33,3.81-1,3.21,0,0-.67-.29-1.78-.82s-2.62-1.32-4.3-2.31c-3.38-2-7.44-4.79-10.18-8.24a6.09,6.09,0,0,0-2.41-1.59s-3.64-3.17-3.81-5.63c0,0-.52-1.45-1.26-3.14a17.32,17.32,0,0,0-2.67-4.52s-.43-2.35-1.72-3.21l1.66,1.61c1,1,2.31,2.32,3.63,3.73,2.63,2.82,5.26,5.93,5.27,7a14.1,14.1,0,0,0,2.28,3.38,18.75,18.75,0,0,0,8.09,5.38S45.27,144.68,42.87,139.87Z"/><path class="cls-47" d="M48.46,141.41c.93.5,2,1,2.9,1.58a17.38,17.38,0,0,1,1.34,1.61,7,7,0,0,1,1.07,2.2c.67,3,3.16,6.7,3.28,9.54a3.44,3.44,0,0,0,.39,1.11c.11.07.44.39.56.46.75,1.07,1.37,2.19,2.11,3.18a11.83,11.83,0,0,1,2.18,5.48c.23,1.06.69,2.27,1,3.39.56,2-.79,2.89-.11,4.68,1,3.05,2.91,5.16,3.71,8,.38,1.69.85,3.1,1.14,4.67a13.48,13.48,0,0,0,1.07,3.64,3.2,3.2,0,0,1,.14,1.29c-.26.06-.68-.58-1.07-.85-1-.84-.7-1.82-.83-2.64a29.71,29.71,0,0,0-1.44-3.22,4.94,4.94,0,0,1-.12-1.46c.08-.76-.56-1.56-1.05-2.41-.7-1-.67-2.42-1.23-3.6A9.38,9.38,0,0,0,62.11,176,4.75,4.75,0,0,1,61,174.13c.14.62-.51-.52-1.1-1.68s-1.17-2.31-.76-1.79c-.11-.07,0-.54.1-.71s.27-.21.38-.14c.88.58,1.55.12,2.27.08,0-.12-1.63-3.15-1.84-4.55a8.18,8.18,0,0,0-.74-3.25c-.21-.26-.57-.23-.79-.49-.4-.68-7.5-6.79-7.92-7.73-.19-.6-.25-1.5.11-1.55.86-.38.58-1.53,1-2.28.13-.17.48-.1.61-.27a2.68,2.68,0,0,0,.13-2.14,9.32,9.32,0,0,0-2-3.31Z"/><path class="cls-48" d="M16.15,125.47a15.83,15.83,0,0,1,5.15,7.17,30.38,30.38,0,0,0,2.18,4l.49,1.14s.83,1.18,1.82,2.4,2.19,2.46,2.93,2.56a15.32,15.32,0,0,1,2.06,2.5,10.08,10.08,0,0,0,4.08,3.2"/><path class="cls-49" d="M61.58,162.35a42.39,42.39,0,0,1,2.1,6.87c.14,1.09.23,2.18.33,3.24s.16,2.07.23,3.29a1.25,1.25,0,0,0,.3.62c1,1,1.29,2.54,2,3.52a5.75,5.75,0,0,1,.86,1.29,55.2,55.2,0,0,1,1.77,7.66,15.27,15.27,0,0,0,.65,3.08c0,.23.19.57.06.69s-.38-.25-.61-.39a9.42,9.42,0,0,1-.4-1,9.87,9.87,0,0,1-.88-2.15c-.15-.74-.14-1.39-.29-2.18a11.79,11.79,0,0,0-.48-1.46,56.83,56.83,0,0,0-2-5.5c-.74-.55-.9-1.81-1.27-2.69a8.7,8.7,0,0,1-.21-.92c-.34-.86-1-1.56-.93-2.23a18.57,18.57,0,0,0,0-4.3,47.57,47.57,0,0,0-2.13-7.21c-.64-1.59-1.79-2.83-2.55-4.27C58,158.24,59.8,158.65,61.58,162.35Z"/></g></g></g><rect class="cls-50" x="100.9" y="135.69" width="33.67" height="3" rx="1.5" ry="1.5"/><rect class="cls-50" x="100.9" y="145.81" width="33.67" height="3" rx="1.5" ry="1.5"/><rect class="cls-50" x="119.88" y="140.75" width="14.7" height="3" rx="1.5" ry="1.5"/><rect class="cls-50" x="100.9" y="140.75" width="16.84" height="3" rx="1.5" ry="1.5"/></g></g></g></svg>