<svg xmlns="http://www.w3.org/2000/svg" viewBox="0 0 270.41 188.19"><defs><style>.cls-1{isolation:isolate;}.cls-12,.cls-15,.cls-2,.cls-3{fill:#d0e9ed;}.cls-15,.cls-16,.cls-17,.cls-20,.cls-21,.cls-26,.cls-3,.cls-4,.cls-44,.cls-45,.cls-46,.cls-5,.cls-7,.cls-8{stroke:#005ea5;stroke-miterlimit:10;}.cls-3,.cls-4{stroke-width:3px;}.cls-4{fill:#fff;}.cls-5{fill:#c8e8ca;}.cls-6{fill:#9abdc1;}.cls-7{fill:#69f497;}.cls-20,.cls-35,.cls-42,.cls-8{fill:none;}.cls-9{fill:#c4da91;}.cls-10{fill:#ff987c;}.cls-11{fill:#f1e0be;}.cls-12,.cls-18,.cls-27,.cls-28{mix-blend-mode:multiply;}.cls-13{fill:#005ea5;}.cls-14{fill:#c6dc94;}.cls-15,.cls-20,.cls-26{stroke-width:2px;}.cls-16{fill:#f4e8e4;}.cls-17,.cls-19,.cls-44,.cls-45{fill:#fff3d9;}.cls-18{fill:#edcbab;}.cls-18,.cls-27{opacity:0.46;}.cls-21,.cls-22{fill:#f7956b;}.cls-23{opacity:0.5;}.cls-24{fill:#f4bba6;}.cls-25,.cls-26{fill:#9decf9;}.cls-27{fill:#acd4ea;}.cls-28{opacity:0.65;}.cls-29,.cls-31,.cls-38{opacity:0.9;}.cls-30{fill:#f5fbf5;}.cls-31{fill:#e4f4e5;}.cls-32{fill:#eaf6eb;}.cls-33{fill:#f0f9f0;}.cls-34{fill:#f9fcf9;}.cls-35{stroke:#eef8ef;}.cls-35,.cls-42{stroke-width:0;}.cls-36{fill:#fdfefd;}.cls-37{fill:#fcf5f0;}.cls-38{fill:#f6e6d6;}.cls-39{fill:#f8ebdf;}.cls-40{fill:#faf1e8;}.cls-41{fill:#fdf9f6;}.cls-42{stroke:#faefe6;}.cls-43{fill:#fefdfc;}.cls-44{stroke-width:1.06px;}.cls-45{stroke-width:0.92px;}.cls-46{fill:#aa987b;stroke-width:1.04px;}.cls-47{fill:#ccbd9f;}.cls-48{fill:#eff2f4;opacity:0.51;}</style></defs><title>pc</title><g class="cls-1"><g id="Livello_2" data-name="Livello 2"><g id="Livello_1-2" data-name="Livello 1"><path class="cls-2" d="M41.88,150.34,5.5,186.42l-2.73-.62A3.56,3.56,0,0,1,0,182.33v-7.07a3.37,3.37,0,0,1,1.21-2.58l29.33-23.09V38.94a5.82,5.82,0,0,1,5.82-5.82h5.51Z"/><path class="cls-2" d="M251.37,172.91l.37,8.07a5.47,5.47,0,0,1-5.45,5h-18L36.92,150V41.13a8,8,0,0,1,8-8H213.59a8,8,0,0,1,8,8V150Z"/><path class="cls-3" d="M41,30.6H209.63a8,8,0,0,1,8,8V150a0,0,0,0,1,0,0H33a0,0,0,0,1,0,0V38.62A8,8,0,0,1,41,30.6Z"/><path class="cls-4" d="M50.16,42.79h150.3a3.37,3.37,0,0,1,3.37,3.37V150a0,0,0,0,1,0,0h-157a0,0,0,0,1,0,0V46.15A3.37,3.37,0,0,1,50.16,42.79Z"/><rect class="cls-5" x="46.79" y="54.69" width="157.04" height="95.33"/><path class="cls-3" d="M217.65,150H33L2.58,173.48a.11.11,0,0,0,.07.2H248a.11.11,0,0,0,.07-.2Z"/><path class="cls-3" d="M2.31,173.69h246a0,0,0,0,1,0,0v8.25a4.75,4.75,0,0,1-4.75,4.75H7.06a4.75,4.75,0,0,1-4.75-4.75v-8.25a0,0,0,0,1,0,0Z"/><polygon class="cls-6" points="211.05 154.99 39.57 154.99 37.25 158.64 213.36 158.64 211.05 154.99"/><polygon class="cls-6" points="216.88 162.01 33.74 162.01 30.54 165.66 220.08 165.66 216.88 162.01"/><circle class="cls-7" cx="125.31" cy="36.69" r="2.26"/><line class="cls-8" x1="203.83" y1="54.69" x2="46.79" y2="54.69"/><circle class="cls-9" cx="63.49" cy="49.43" r="1.5"/><circle class="cls-10" cx="52.99" cy="49.43" r="1.5"/><circle class="cls-11" cx="58.24" cy="49.43" r="1.5"/><path class="cls-12" d="M39.88,121.26A6.91,6.91,0,0,1,33,114.36V150H46.79V114.36A6.91,6.91,0,0,1,39.88,121.26Z"/><path class="cls-12" d="M210.74,121.26a6.91,6.91,0,0,1-6.91-6.91V150h13.82V114.36A6.91,6.91,0,0,1,210.74,121.26Z"/><polygon class="cls-12" points="241.18 169.23 5.44 169.23 1.95 172.91 244.66 172.91 241.18 169.23"/><path class="cls-12" d="M2.31,181.18v.75a4.75,4.75,0,0,0,4.75,4.75H243.55a4.75,4.75,0,0,0,4.75-4.75v-.75Z"/><line class="cls-2" x1="125.31" y1="22.19" x2="125.31" y2="6.42"/><path class="cls-13" d="M125.31,22.19s0-.25-.1-.68-.13-1-.19-1.79c-.13-1.48-.21-3.45-.21-5.42s.09-3.94.21-5.42c.06-.74.15-1.36.19-1.79s.1-.68.1-.68,0,.25.1.68.13,1,.19,1.79c.13,1.48.21,3.45.21,5.42s-.09,3.94-.21,5.42c-.06.74-.15,1.36-.19,1.79S125.31,22.19,125.31,22.19Z"/><line class="cls-2" x1="131.67" y1="22.19" x2="139.26" y2="10.43"/><path class="cls-13" d="M131.67,22.19s.33-.83.95-2S134.1,17.51,135,16s2-2.89,2.79-3.93,1.43-1.68,1.43-1.68-.33.83-.95,2-1.49,2.69-2.43,4.16-2,2.89-2.79,3.93S131.67,22.19,131.67,22.19Z"/><line class="cls-2" x1="118.95" y1="22.19" x2="111.09" y2="9.43"/><path class="cls-13" d="M118.95,22.19s-.63-.71-1.47-1.84-1.9-2.68-2.88-4.28-1.89-3.24-2.52-4.5-1-2.14-1-2.14.63.71,1.47,1.84,1.9,2.68,2.88,4.28,1.89,3.24,2.52,4.5S118.95,22.19,118.95,22.19Z"/><path class="cls-14" d="M257.94,121.13l-3.47-1.9a1.7,1.7,0,0,1,0-3l3.47-1.9a1.7,1.7,0,0,0,.67-.67l1.9-3.47a1.7,1.7,0,0,1,3,0l1.9,3.47a1.7,1.7,0,0,0,.67.67l3.47,1.9a1.7,1.7,0,0,1,0,3l-3.47,1.9a1.7,1.7,0,0,0-.67.67l-1.9,3.47a1.7,1.7,0,0,1-3,0l-1.9-3.47A1.7,1.7,0,0,0,257.94,121.13Z"/><path class="cls-14" d="M18.78,9,16.13,7.55a1.29,1.29,0,0,1,0-2.27l2.65-1.45a1.29,1.29,0,0,0,.51-.51L20.74.67A1.29,1.29,0,0,1,23,.67l1.45,2.65a1.29,1.29,0,0,0,.51.51l2.65,1.45a1.29,1.29,0,0,1,0,2.27L25,9a1.29,1.29,0,0,0-.51.51L23,12.16a1.29,1.29,0,0,1-2.27,0L19.29,9.51A1.29,1.29,0,0,0,18.78,9Z"/><path class="cls-14" d="M6.47,68.27,4.54,67.21a.94.94,0,0,1,0-1.65L6.47,64.5a.94.94,0,0,0,.37-.37L7.9,62.2a.94.94,0,0,1,1.65,0l1.05,1.93a.94.94,0,0,0,.37.37l1.93,1.05a.94.94,0,0,1,0,1.65L11,68.27a.94.94,0,0,0-.37.37L9.56,70.57a.94.94,0,0,1-1.65,0L6.85,68.64A.94.94,0,0,0,6.47,68.27Z"/><path class="cls-15" d="M105.75,119.28s-16.29,7.41-22.54,15.66-8,15.08-8,15.08H180.47s-15.5-26.08-24.25-28.08-15.69-4.19-15.69-4.19Z"/><path class="cls-16" d="M143.25,118.56l-2.72-.82-33,.59-4.84,2.44L107.4,139a4.51,4.51,0,0,0,3,3.17c4.85,1.57,15.65,5,17.91,5,0,0,13-6,15-16.89V118.56"/><path class="cls-17" d="M107.53,122.05c.82,4,2.15,10.44,2.89,14a4.56,4.56,0,0,0,3.1,3.42l14,4.44s10.55-6.51,11.69-15.16l1.49-13Z"/><path class="cls-18" d="M140.12,121.33a42.82,42.82,0,0,1-7.3,12.12c-3.93,4.55-5.73,3.44-9.95,3.5-3.15,0-7.17-1.93-9.35-3a9.7,9.7,0,0,1-4.38-4.11l-1.61-7.79,22.81-1.61,10.41-4.68Z"/><path class="cls-19" d="M144.47,84.76a1.81,1.81,0,0,0-1.21.5c-2.08-10-7.28-20.88-21.1-20.17C107.32,65.85,103.57,77,102.86,87a1.88,1.88,0,0,0-1-.19c-2.73.14-5.59,1.27-5.12,10.32.29,5.56,3.42,10,6.16,9.81a2,2,0,0,0,.67-.16c1.68,13.52,6.18,24.89,21.93,24,10.59-.62,18.77-11.86,19.34-26a2,2,0,0,0,.62.07c2.73-.14,4.72-4.76,4.43-10.32C149.47,85.51,147.2,84.61,144.47,84.76Z"/><path class="cls-20" d="M142.47,84.76a1.81,1.81,0,0,0-1.21.5c-2.08-10-7.28-20.88-21.1-20.17C105.32,65.85,101.57,77,100.86,87a1.88,1.88,0,0,0-1-.19c-2.73.14-4.9,1.27-4.43,10.32.29,5.56,2.73,10,5.47,9.81a2,2,0,0,0,.67-.16c2,14,11.3,24.52,21.93,24s18.77-11.86,19.34-26a2,2,0,0,0,.62.07c2.73-.14,4.72-4.76,4.43-10.32C147.47,85.51,145.2,84.61,142.47,84.76Z"/><path class="cls-21" d="M104.29,84.34l.5,19.78-2.72,1.34s-2-13.78-1.34-17.56S104.29,84.34,104.29,84.34Z"/><path class="cls-22" d="M134.1,76.93a26.36,26.36,0,0,1-15.93,8.94,16.34,16.34,0,0,0,1.23-5.13A14.88,14.88,0,0,0,109.28,87l-2.68-3.09s-1.39,3.38-.81,10.18c0,0-7.4-2.5-9-10.28-.24-1.13-4.39.63-4.39.63s3.2-9.07,5.53-11.73c1.92-2.19-2.23-6.95-2.23-6.95s11.47-3.81,14.37-4.72a37.19,37.19,0,0,1,10-1.44c8.61,0,13.13,2.49,19,7.25,3.36,2.73,5.79,17.47,5.79,17.47l-1.67,2.19,0,13.51-2.56.13s-1.53-11.82-2.26-12.66S134.1,76.93,134.1,76.93Z"/><path class="cls-20" d="M134.54,76.91c-6.64,8.05-14.33,8.45-14.33,8.45a16.86,16.86,0,0,0,1.17-5.13S113,81.32,109.28,87l-2.49-3.18S105.47,87.22,106,94c0,0-5.68-2.51-7.24-10.3-.23-1.13-4.2.62-4.2.62s3-9.07,5.27-11.72c1.84-2.18-2.15-6.24-2.15-6.24s11-3.78,13.75-4.69a26.93,26.93,0,0,1,8.5-1.25c8.25,0,13.66,1.64,19.29,6.42,3.23,2.74,5.58,17.48,5.58,17.48l-1.59,2.19V100l-2.45.13s-1.49-11.82-2.19-12.67S134.54,76.91,134.54,76.91Z"/><polyline class="cls-21" points="139.26 80.26 136.02 88.62 134.54 76.91"/><g class="cls-23"><path class="cls-24" d="M134.39,69c-1.77,2.18-8.12,8.25-8.12,8.25a11.09,11.09,0,0,0,2.13-6c0-3.25-10,2.75-12.24,5.25s-10.88,2.34-10.88,2.34,3.13-.5,7.13-4.92,9.13-7.55,13.75-7.55a29.67,29.67,0,0,1,6.92.62S135.94,67.1,134.39,69Z"/><path class="cls-24" d="M115,66.31c-2-.07-5.37,2-8.37,5.13A12.28,12.28,0,0,1,117,62.94c8.38-1,10,1,10,1s1.11.65-4.7,1.14S115,66.31,115,66.31Z"/></g><rect class="cls-25" x="165.38" y="118.19" width="35" height="24"/><rect class="cls-26" x="161.9" y="118.19" width="35" height="24"/><path class="cls-18" d="M143.53,100.16l1.31-2.23.56-5.12-.94-.31s-.12-6.7.94-7l-.94-.67-1.22,1.67Z"/><path class="cls-18" d="M101.67,102.86l-1.64-2-1.36-5,.88-.46s-1.66-7.11-2.76-7.22l2.4-1.31,1.4,2.6Z"/><path class="cls-18" d="M134.85,82.76s-10.28,3.93-13.12,4l.7-1.81s9.64-3.13,11.63-7.49A18.88,18.88,0,0,1,134.85,82.76Z"/><path class="cls-18" d="M120.64,82.76,111.89,88l-.67-2.08S107.57,90,108,92.51l-2.12-2.24.89-6.42L109.28,87a13.42,13.42,0,0,1,4.13-3.92,61.69,61.69,0,0,1,7.53-2.8S121.47,81.09,120.64,82.76Z"/><path class="cls-27" d="M109.14,129.85c-2.5-1.66-5.72-3.66-6.45-3.33s-17.29,5.94-17.29,5.94,12.81-10.77,20.36-13.19l1.78,2.77Z"/><path class="cls-27" d="M140.34,122.44a19,19,0,0,1,4.5-.75c2,0,5,3.88,6.63,5.13s10.43,2,10.43,2v-2.94s-3.74-4-5.68-3.93c-2.56.12-16.8-3.25-15.69-4.19Z"/><g class="cls-28"><g class="cls-29"><g class="cls-29"><path class="cls-30" d="M69.69,46c-.5-4.09-4.8-4.41-5.4-5.38a1.81,1.81,0,0,0-.21-.22L64,40.31,42.74,60.93c-2.83,2.75,5.2,11.94,3.38,11.85-2.62-.27-15.22,1-15.87,1.94-1.73,2.16.29,4.53,4.32,6.63,1.75,1,3,1.23,2.6,1.62-.06.16,4.71.9,7.14,2.23,1.53.91.82,2,2.65,2.8,2.6,1.6,5,6.36,6.47,8,2.76,3.2,3.22,4.75,1.46,7.07-1.77,1.73-.49,3.27-1.22,5.08-.49,1.92,0,3.31-.44,5.23a8.7,8.7,0,0,0-1.82,5.41,1.58,1.58,0,0,0,.8.73c.46.2.27.7.44,1-.86,1.56-3.53,3-3,4.52a2.44,2.44,0,0,0,2.32,1,56.7,56.7,0,0,0,13.49-3c3.43-1.23,3.52-2.89,4.47-4.58,1.18-2.35,8-3.82,14.58-4.78,5.13-.65,13.11-1,12.83-3-.66-2.31-4.61-4.56-2-6.82,2-1.56,3.89-2.8,4.85-4.43A5.91,5.91,0,0,0,101.54,98c-.54-1.92,1.45-4-3.33-5.59-1.52-2.18.53-3.14-2.75-5C91,85,86.08,82.6,85,80a3.9,3.9,0,0,1,.17-4.13c.21-.48,5-1.91,6.5-2.32,2.82-.79,1.06-2.36-.92-3.47a25.12,25.12,0,0,1-8.2-5.56.52.52,0,0,1,.09-.49l-17,16.34c.5.24,1,.91,1.56.9,1.76-.77,2.91-4.09,4.41-5.72,5.72-3,4.84-5.33,5.09-5,.59-.08.94,2.66,1.69,3.16,1,.32,1.92-1.24,2.5-2.9,1.74-4.46,3.89-9,6.42-6.67-.17-.58-.26-1.4-.43-1.45-3.54-3.21-6.51-9.15-10.11-8.44-.33.42-.75,1.08-1.17,1.21a5.38,5.38,0,0,0-2.09.66C72.42,56.3,70.12,49.52,69.69,46Z"/><path class="cls-31" d="M69.77,118.38c-.94,1.69-1,3.35-4.47,4.58a56.64,56.64,0,0,1-13.49,3,2.43,2.43,0,0,1-2.32-1c-.49-1.56,2.18-3,3-4.52-.17-.27,0-.76-.44-1a1.6,1.6,0,0,1-.8-.73,8.71,8.71,0,0,1,1.82-5.41c.48-1.92-.05-3.31.44-5.23.73-1.81-.56-3.35,1.22-5.08,1.76-2.32,1.3-3.87-1.46-7.07-1.46-1.68-3.87-6.44-6.47-8-1.83-.85-1.12-1.89-2.64-2.8,0,0,2.07-.49,5.55-1.61l9.78,7.76,9.82,7.65.16,9.73Z"/><path class="cls-32" d="M49,85.34A16.64,16.64,0,0,1,45.62,82c-1-1.61-.7-3.07,4.63-2.43,0,0,6.52,1.69,13.09,3.81S76.53,88,76.72,89.8a21.08,21.08,0,0,0,.77,4S73,96,75.63,98.86a51.27,51.27,0,0,1,2.62,5.72c1.09,2.89,1.7,5.84-.18,6.17,0,0-2.06,4.41-4.89,5.47,0,0-7.61,1.52-6.79,3.58a34.6,34.6,0,0,1-4.13,2.6c-2.14,1.11-4.42,1.84-5,.24a17.22,17.22,0,0,1-2.16-2.83s.87-3.34,2.08-6.75,2.73-6.88,4-7.21A13.74,13.74,0,0,0,63.3,98C63,93.7,60,88.6,49,85.34Z"/><path class="cls-33" d="M46.06,85a24.56,24.56,0,0,1-4.8-2.68c-1.86-1.46-2.62-3.16,1.73-4.07a39.37,39.37,0,0,1,6-2.8c3.41-1.24,7.62-2.17,10.79-1,0,0,6.23,2.36,12.61,5.55s12.9,7.21,13.46,10.69c0,0,0,.74,3.91,2.32,0,0,4.07,3.87-1.4,5.24,0,0-7.48,4.27-6.18,6.36,0,0-4.4,1.49-2.46,2.71a42.54,42.54,0,0,1-3.61-6c-1.48-3.08-2.29-6.32.26-6.89a2.75,2.75,0,0,0,.83-3.17c-.77-2-3.89-4.72-13.31-7.91C63.91,83.36,49.66,80.93,46.06,85Z"/><path class="cls-34" d="M31.63,80.55c-1.82-.86-4.17-1.78-5.69-2.71-.61-.49-.33-1.16-.65-1.71-.24-.72.86-1.39,1.59-1.84,4.65-2,5-5.52,10.84-7.07.67-.27,1-.49,1.18-.82-.23-.11-.61-.5-.83-.61-.1-1,.33-2-.06-3-.42-.76-.14-1.43.55-2.14L62.92,35.32l1,.85a15.07,15.07,0,0,1,2.56,3.52,28.1,28.1,0,0,0,2.79,3.24c1.6,1.82,2,8.25,3.49,9.26,2.44,2.08,4.35-2.32,6.79-.77,1.43,1.24,2.69,1.9,4,3.9A52.76,52.76,0,0,0,86.78,60a12.63,12.63,0,0,1,.94,3.19c-.08.76-.67.31-1,.74-.92,1-1.52-2.06-2.2-3.32-.85-1.32-1.85-.58-2.86-.9a6.3,6.3,0,0,1-1.19-2c-.59-1.5-1.34-.42-2.1.13-.92,1-2-1.16-3-.95C74,57.06,73,60.43,71.85,59c1,1.37-4.11.55-3.1-.19-.08.24-.42-.92-.51-1.74a9.88,9.88,0,0,1,0-1.58c.66-1.9.48-5.11.63-7.7-.09-.29-2.77-.61-3.87-2.8l-.79-1.76L45.63,61.16c-1.29.48-2.39.93-2.69,1.62.15.28,1.43.5,1.58.78,0,.64,9.86,8.46,9,9.2a7.08,7.08,0,0,1-3.87.72c-3.67-.37-5.37.4-8.43.53-.82,0-1.8-.27-2.62-.26-2.24.12-4.84.46-5.35,1-1.47.89-2,2.05-1.26,3Z"/><path class="cls-35" d="M96.26,108.95s-5-3.63,1.34-6.78c0,0,3.18-2.72,2.78-3.36l1.19-.88s1-4.42-3.25-5.46c0,0-1.48-2.26-.67-2.56,0,0,.6-1.7-5.55-4.2"/><path class="cls-36" d="M35.78,61.1l.64-.65L63.08,33.33l.73.71c1.34,1.29,4.08,4.24,5,6.12,1.69,3.34,3.28,6.64,5,10.33.17.23.39.3.5,0,.88-2.18,2.12-.74,3-1.86.39-.4.72-1.35,1.17-1.21,2.35.74,4.6,3.56,6.75,7.39.9,1.69,1.7,4,2.6,6.08a6.68,6.68,0,0,1,.46,1.9c.06.54-.33.25-.53.45-.25-.34-.48-1.12-.82-1.57-.62-1.07-1.35-1.13-1.91-2.36-.62-1.07-1.13-2.46-1.81-3.37A3,3,0,0,0,81.89,55a7.06,7.06,0,0,0-4.76-1.32c-.55,1.93-1.56.56-2.29.51-.22-.07-.45-.49-.73-.76-.67-.21-1.34.63-1.85-.75A57.28,57.28,0,0,0,69,44.44,44.59,44.59,0,0,0,64,37.83L62.4,36.14,40.21,60.74c-.38.42-.65.66-.79.83-1.27,1.27-.05,2.67-.77,3.92C38.61,65.59,33.81,64.24,35.78,61.1Z"/></g></g></g><g class="cls-28"><g class="cls-29"><g class="cls-29"><path class="cls-30" d="M160.51,79.1c-.63,4,1,4.91,1,5.94.07.87.48,1,1.06.78a8.06,8.06,0,0,0,1.92-1.53,3.21,3.21,0,0,1,.61-.47l.64-.44c.41-.28.78-.54,1.09-.74l.41-.24.16-.07h.07l3.16-11.41h0l0,.11-.11.41a6.76,6.76,0,0,1-.39,1,6.5,6.5,0,0,1-.48.84c-.19.39-.39.81-.54,1.08a13.45,13.45,0,0,1-1.3,1.94c-.12.16-.24.28-.37.45l-.41.61q-.42.59-.86,1.15a24.39,24.39,0,0,1-1.82,2c-.16.16-.3.29-.47.48l-.5.58q-.5.57-1,1.09c-1.32,1.36-1.54,1.53-2.16,2.1l-.29.26-.23.2-.07.06,0,0,.09-.08.4-.38a37.18,37.18,0,0,1,3.5-3c1.29-.91.94-.33,2.52-1.36A12.33,12.33,0,0,1,170,79.28c1.31-.17,2.56-.21,3.41-.32,3.2-.38,4.09.1,3.2,1.91-1.08,1.58.44,1.57.26,2.67,0,1,.85,1.36.85,2.39-.71,1.28-1,2.21-.54,3a1.85,1.85,0,0,0,.87,0c.46-.09.38.18.58.23a7.41,7.41,0,0,1-1.54,1.55,7.54,7.54,0,0,0-.67.65c-.15.15-.19.25,0,.31a7.7,7.7,0,0,0,2.33-.39A49.65,49.65,0,0,0,191,85.82c3-1.89,2.62-2.94,3-4.27.48-1.77,6.21-5.49,11.79-9,4.39-2.68,11.37-6.58,10.31-7.94-.76-.71-2.25-1-3.39-1.43s-1.9-1.05-1.33-2.55c.49-1.09,1-2.13,1.35-3.11a7.94,7.94,0,0,0,.5-2.87,5.35,5.35,0,0,0,.38-1.95c-.81-.64-1.14-1.7-1.88-2.39a2.37,2.37,0,0,0-.64-.43,2.81,2.81,0,0,0-.92-.26,6.07,6.07,0,0,0-2.78.49c-2.57-.74-2.07-3.2-5.91-2.45l-.95.22-1,.19-2,.41-3.75.83-.87.17-.93.09c-.6.05-1.18.09-1.73.1a8.86,8.86,0,0,1-3-.35,15.34,15.34,0,0,1-3.3-1.35q-.37-.21-.72-.44l-.91-.56c-.63-.39-1.26-.82-1.89-1.27a3.86,3.86,0,0,1-.89-1.24l-.58-1.08-.16-.3,0,0v0h0l-.23-.07V42.7l0-.52c.07-1.41.18-3,.25-3.75.11-1.4-.16-1.71-.59-1.44a1.91,1.91,0,0,0-.35.3c-.14.13-.32.28-.49.45a10.83,10.83,0,0,0-1,1.21c-1.1,1.76-2.09,3.21-3,4.42a24.1,24.1,0,0,1-2.57,3c-.5.17-.61-1.18-1.11-1.29-1.32.42-2.82,3.45-4.08,4.81-4.17,2-4,4.53-4.08,4.14-.36,0-.11-2.75-.51-3.34-.59-.45-1.42,1-2,2.56a47.93,47.93,0,0,1-2.5,5.55c-.78,1.3-1.45,1.76-2.13.49a8.48,8.48,0,0,0,.16,1.48c1.82,3.45,2.37,9.62,4.18,9.31.23-.38.54-1,.77-1.06a1.92,1.92,0,0,0,1.15-.4C161.38,68.64,161.1,75.57,160.51,79.1Z"/><path class="cls-31" d="M194,81.56c-.43,1.34-.08,2.38-3,4.27a49.8,49.8,0,0,1-12.36,5.42,7.71,7.71,0,0,1-2.32.4c-.15-.05-.11-.16,0-.3a6,6,0,0,1,.67-.65,7.34,7.34,0,0,0,1.54-1.55c-.2,0-.12-.32-.58-.23a1.9,1.9,0,0,1-.87,0c-.42-.76-.16-1.69.54-3,0-1-.81-1.36-.85-2.38.18-1.09-1.33-1.09-.25-2.67.43-.9.44-1.47-.07-1.78a6,6,0,0,0-3.13-.12c-.84.11-2.09.15-3.4.32a12.44,12.44,0,0,0-3.86,1.3c-1.57,1-1.22.46-2.51,1.37l1-1,1.19-1.25c.47-.47,1-1,1.56-1.66A16.47,16.47,0,0,1,170,76.39c.87-.44,1.92-.94,3.08-1.42s2.42-.88,3.72-1.27A67.11,67.11,0,0,1,184.15,72c2-.36,3.4-.55,3.4-.55s.47.6,1.11,1.52,1.48,2.16,2.29,3.42,1.55,2.55,2.1,3.54Z"/><path class="cls-32" d="M167.08,78.81s-.54.31-1.17.71-1.33,1-1.76,1.36l-.27.21-.09.06s-.06.05,0,0l.18-.21c.44-.42.83-.83,1.14-1.17s.54-.61.67-.77L167,77.47s1-1.28,2.77-3.09a56.91,56.91,0,0,1,6.88-6.08c5.38-4.12,11.7-7.12,12.85-6.15,0,0,.37.33.88.72a10.45,10.45,0,0,0,1.68,1.1,7.72,7.72,0,0,0-.88,2,1.8,1.8,0,0,0,.08,1.34c.2.37.64.62,1.47.66,0,0,.6.18,1.47.51a22.89,22.89,0,0,1,3,1.38c2,1.14,3.57,2.68,2,3.73a9.12,9.12,0,0,1-.48,2,7.36,7.36,0,0,1-2.23,3.37s-1.62,1-3.1,2.1-2.81,2.23-2.19,2.64a26.57,26.57,0,0,1-3.26,2.89c-1.78,1.32-3.83,2.33-4.68,1.83a16,16,0,0,1-2.53-.47l.42-3.84c.27-2.05.64-4.35,1.6-5.1a6,6,0,0,0,.36-1.66,4,4,0,0,0-.92-3c-.81-.9-2.35-1.48-4.82-1a17,17,0,0,0-4.41,1.63A41.45,41.45,0,0,0,167.08,78.81Z"/><path class="cls-33" d="M164.84,80.73l-1.38,1.06c-.38.33-.8.7-1.2,1.08l-.6.57-.28.28-.05.05.09-.09.19-.18c.5-.49,1-1,1.51-1.58l.75-.86c.24-.27.46-.46.68-.7a24.69,24.69,0,0,0,2.28-2.71l.3-.42.33-.49.37-.45a13.66,13.66,0,0,0,1.6-2.53,9.76,9.76,0,0,1,.55-1,6.48,6.48,0,0,0,.31-.66l.13-.34c.31-.84.62-1.65,1-2.38,0,0,.17-.36.51-1a19,19,0,0,1,1.64-2.47,24.35,24.35,0,0,1,2.9-3.06,30.84,30.84,0,0,1,4.08-3,26,26,0,0,1,4.78-2.34A24.86,24.86,0,0,1,190,56.11a17.86,17.86,0,0,1,4.12-.3,5.25,5.25,0,0,1,2.81.92s.1.13.69.08a17.88,17.88,0,0,0,3.7-.93,5.5,5.5,0,0,1,.82.13,4.16,4.16,0,0,1,1.46.57c.88.61,1.36,1.81-.59,3.81,0,0-1,1.78-1.87,3.57s-1.56,3.54-.58,3.86a15.91,15.91,0,0,0-1.36,1.54c-.55.75-.85,1.45.22,1.34A50.76,50.76,0,0,1,194.16,69a7.77,7.77,0,0,1-2.89-1.68c-.59-.66-.66-1.43.24-2.36a2.32,2.32,0,0,0,.18-.9,1.53,1.53,0,0,0-1-1.43,3.85,3.85,0,0,0-1.63-.23,10.82,10.82,0,0,0-2.75.5,22.9,22.9,0,0,0-3.93,1.66,38.12,38.12,0,0,0-5.26,3.3s-.67.6-1.68,1.57-2.36,2.31-3.74,3.76-2.82,3-4.05,4.35L166,79.38l-.65.71C165.12,80.33,165,80.54,164.84,80.73Z"/><path class="cls-34" d="M163.26,81.75l.77-.87.71-.71c.47-.49.93-1,1.39-1.59.25-.31.55-.71.85-1.13l.44-.64c.14-.21.26-.31.38-.47a13.62,13.62,0,0,0,1.47-2.24c.38-.85.71-1.23,1-1.87a6.93,6.93,0,0,0,.34-1l.06-.27v-.05h0L163.35,97l0-.07,0-.14-.14-.54a15.22,15.22,0,0,1-.46-2.45,11.78,11.78,0,0,1,.13-3.5,2.68,2.68,0,0,0,0-1.15c-.09.22-.31.58-.4.8-.37.08-.58-.35-1.09,0-.84.87-.86-1.61-.88-4.31a29.69,29.69,0,0,0-.41-3.51c-.27-2,.86-8.32.34-9.49-.79-2.35-2.43,1.77-3.27,0a23.23,23.23,0,0,1-1.39-4.23,38.05,38.05,0,0,0-1.18-4.91,27.62,27.62,0,0,1-.33-3.24c.09-.76.42-.27.64-.67.63-1,.71,2.16.94,3.48s.91.74,1.41,1.15a8.28,8.28,0,0,1,.35,2.05c.09,1.55.61.54,1.08.09.64-.92.84,1.37,1.37,1.28s1.84-3.11,2.18-1.56c-.24-1.49,2.24,0,1.55.62a5.3,5.3,0,0,1-.13,1.77c-.12.51-.26,1.32-.35,1.54a64.07,64.07,0,0,0-2,7.42c0,.29,1.1,1,1.05,3.24-.08,1.91-.27,4,.06,4.48.15-.14.51-1.38.66-1.53s1.48-2.34,3-4.54a34.12,34.12,0,0,1,2.32-2.81,7.67,7.67,0,0,1,.8-.78.76.76,0,0,1,.24-.14h.07l0,0v0h0l1.2-4.49h0a6.77,6.77,0,0,1-.72,1.93l0-.08c-.06.11-.15.27-.28.46a2.9,2.9,0,0,0-.22.43l-.27.54A13.57,13.57,0,0,1,168,76l-.34.42a3.71,3.71,0,0,0-.35.46c-.25.37-.5.72-.73,1,0,0-.74,1-1.58,1.91-.42.47-.84.86-1.19,1.23Z"/><path class="cls-35" d="M214.55,63.77a5.07,5.07,0,0,1-2.43-.76c-.93-.7-1.41-2.06.52-4.92l.2-.59c.11-.36.24-.85.35-1.35.22-1,.33-2.06,0-2.2l.25-.69c.13-.34.23-.7.23-.7a6.17,6.17,0,0,0-1.48-1.93,4.1,4.1,0,0,0-4.6-.62,11.85,11.85,0,0,1-1.3-.56,3.58,3.58,0,0,1-.82-.55c-.23-.22-.35-.44-.26-.64,0,0-.25-.5-1.31-.73a6.41,6.41,0,0,0-2.25,0,21,21,0,0,0-4,1"/><path class="cls-36" d="M160.26,92.08c-.07-.35-.22-1.56-.36-3a38.33,38.33,0,0,1-.25-4.22c0-3.47,0-6.89-.06-10.72,0-.25-.12-.34-.23,0-.79,2-1.09.48-1.66,1.5-.23.36-.52,1.26-.69,1.08-.88-1-1.43-3.93-2.08-7.9-.27-1.74-.47-4.14-.86-6.23a15.76,15.76,0,0,1-.2-1.92c0-.55.23-.23.34-.42.13.36.22,1.14.37,1.62a17.85,17.85,0,0,1,.83,2.49c.22,1.11.34,2.54.56,3.5a2.35,2.35,0,0,0,.51,1c.65,1.17,1.31,1.82,2.08,1.78.58-1.85.85-.37,1.18-.24a4,4,0,0,1,.21.83c.28.29.76-.45.73,1-.13,3.19-.25,6-.24,8.44,0,1,.15,2.74.3,4.37s.29,3.09.41,3.49c.24,1.27,1.07.11,1.3.82a1.34,1.34,0,0,1-.06.21l-.18.51c-.15.41-.36.93-.58,1.39C161.23,92.4,160.64,93.07,160.26,92.08Z"/></g></g></g><g class="cls-28"><g class="cls-29"><g class="cls-29"><path class="cls-37" d="M127.56,123.55a4.67,4.67,0,0,0,4-2.46c.71-1.29,1-2.65,1.48-3,.76-.77.66-2,.11-3.39a12.34,12.34,0,0,0-1.23-2.16c-.25-.36-.52-.72-.79-1.06-.14-.19-.26-.31-.43-.55l-.51-.7c-1.34-1.74-3-3.69-3.56-3.52-.71-.29-1-.53-.62-.71.61-.24,1.76-.8,3.14-1.52l1.08-.56.56-.3.29-.15.14-.08.07,0,0,0h0l-14.43,5.58h0l.26-.13a4.66,4.66,0,0,1,.57-.23c.2-.07.49-.19.66-.24a28,28,0,0,1,7.7-1c1.56,0,1.73,0,2.47,0l1,0,.45,0h.07l-.61,0c-.8-.05-1.58-.1-2.2-.2-1.55-.27-.9-.38-2.71-.85a9.51,9.51,0,0,1-3.57-2c-1-.87-1.86-1.86-2.5-2.45-2.4-2.26-2.6-3.35-.61-4.06,1.94-.39.95-1.6,1.93-2.37.78-.88.53-1.83,1.34-2.75,1.5-.58,2.43-1.29,2.8-2.53a1.58,1.58,0,0,0-.59-.74c-.39-.29-.1-.54-.2-.77a4.8,4.8,0,0,1,1.12-.5c.44-.17.91-.34,1.35-.53.84-.34,1.54-.77,1.43-1.45,0-.37-1-1.16-2.12-1.36-5.42-1-9.61-1.39-13.36-1.84-3.43-.46-3.81.32-5,1-1.57.91-8.23-.59-14.63-2.26-5-1.34-12.54-3.84-12.77-2.26,0,2,3.25,5,.24,6.18-2.31.79-4.44,1.51-5.78,3a5.77,5.77,0,0,0-1.74,1.23C72,91.94,69.5,94.28,74,96.9a5.52,5.52,0,0,1,.29,1,6,6,0,0,1,.09.93c0,.58-.05,1.1-.05,1.61,0,1.13.24,2.11,1.85,3.54,2.17,1.75,4.55,3.46,6.61,5.12a17.68,17.68,0,0,1,4.83,5.34c.33.58.61,1.14.86,1.69A18.59,18.59,0,0,1,89.2,118c.1.31.2.61.29.92s.2.67.29,1,.18.69.25,1l.11.53.05.27,0,.14v.05l4-3h0v0l-.79,2.2-.05.15h-.54c-.25,0-.52,0-.78-.05s-.52-.07-.76-.12-.45-.15-.69,0-.7.18-1.06.25l-.54.1h0l.27-.05.53-.09a17.22,17.22,0,0,1,3.54-.17c.32.08-1,.34-1,.48.74.26,4,.67,5.54,1.31a12.88,12.88,0,0,0,3.35,2.28c.86.37,1.37.38,1.19.42,0,.3-2.73,0-3.3.24-.41.36,1,1.05,2.54,1.69a24.14,24.14,0,0,1,5.26,2.9c1.17,1,1.45,1.82.06,2.11a7.17,7.17,0,0,0,1.46.24c1.9-.48,4.43-.85,6.48-1.49s3.63-1.56,3.55-2.94c-.37-.32-.95-.72-1-1a3,3,0,0,0-.4-1.59c0-.42,1.7-.87,3.88-1.3A55.8,55.8,0,0,1,127.56,123.55Z"/><path class="cls-38" d="M106.66,84c1.21-.65,1.58-1.43,5-1,3.76.44,7.95.84,13.37,1.84,1.09.2,2.1,1,2.11,1.36.11.68-.59,1.1-1.44,1.45-.43.19-.91.36-1.35.53a4.79,4.79,0,0,0-1.12.5c.1.23-.19.48.2.77a1.62,1.62,0,0,1,.59.74,4,4,0,0,1-2.8,2.53c-.81.92-.56,1.86-1.34,2.74-1,.76,0,2-1.94,2.36-2,.71-1.78,1.8.62,4.05.63.58,1.46,1.58,2.5,2.44a9.51,9.51,0,0,0,3.58,2c1.81.47,1.16.57,2.71.83l-1.44-.05c-.93,0-2.3,0-4,.06l-.86-.18a19.24,19.24,0,0,1-2.27-.63,31.91,31.91,0,0,1-6.6-3.24A59,59,0,0,1,106,98.6c-1.62-1.35-2.66-2.31-2.66-2.31s.16-.82.44-2,.68-2.78,1.11-4.32Z"/><path class="cls-39" d="M122.59,106.79l1.35.27c.38.06.77.15,1.16.18l.92,0-1.73.06c-.52,0-1,.07-1.37.12l-.74.06-.52.06-1.13.13c-.72.07-1.76.17-3,.2a50.23,50.23,0,0,1-9.17-.52A39.72,39.72,0,0,1,99.2,105c-2.48-1-4.12-2.2-4.14-3L95,100.62a13.26,13.26,0,0,0-.28-2.22,8.48,8.48,0,0,0,2.07-.83,1.67,1.67,0,0,0,.51-2.77,28.92,28.92,0,0,1-1.46-4.87c-.45-2.38-.38-4.59,1.46-4.16a9.65,9.65,0,0,1,1.8-1,7.51,7.51,0,0,1,3.94-.68s7.43,1.79,7.06.34c0,0,2.15-.13,4.38-.09s4.56.16,4.82,1.42a15.56,15.56,0,0,1,1.42,2.56s-.39.45-1,1.08-1.43,1.41-2.32,2.17c-1.78,1.52-3.81,3-5,2.82a6.89,6.89,0,0,0-1.52,1,4.79,4.79,0,0,0-1.75,3.06c-.14,1.34.41,3,2.42,4.61S117,106,122.59,106.79Z"/><path class="cls-40" d="M125.53,107s.75.09,1.74.17l.78.06.41,0c.12,0,.38,0,.12,0-.55,0-1,0-1.61,0s-1.19,0-1.76,0-1.07,0-1.6.07l-.79.09-.65.05c-.42,0-.83.11-1.19.18l-.34.06c-.19,0-.45.07-.77.14l-.5.12-.5.13a7.09,7.09,0,0,0-.89.28l-.36.13-.28.11c-.18.07-.32.15-.43.2h0l.93.12h0l0,0-.31.17-.62.32c-.41.21-.83.4-1.24.57s-.83.33-1.24.46l-.61.18h-.06c-.23-.49-.06-.14-.12-.24h0l-.07,0-.14.06-.29.11s-.37.14-1,.35a21,21,0,0,1-2.88.65,23.24,23.24,0,0,1-9.32-.55,25.56,25.56,0,0,1-9.49-4.7c-2.55-2-4.2-4.39-4.28-6.28,0,0,0-.22-.4-.66a16.94,16.94,0,0,0-3.17-2.3,5.66,5.66,0,0,1-1-2.43A2,2,0,0,1,82,93.1a4,4,0,0,1,2.75-.77L86,92c.75-.21,1.74-.51,2.7-.85,1.92-.65,3.73-1.42,3.32-2.38a14.25,14.25,0,0,0,2.06-.07c.93-.13,1.65-.4.86-1.13a42.25,42.25,0,0,1,2.25,5.32c.85,2.62,1.22,5.19-1.36,5.19a2.38,2.38,0,0,0-.8.57,1.91,1.91,0,0,0-.39,2,4.38,4.38,0,0,0,.93,1.55A10.54,10.54,0,0,0,97.84,104a27,27,0,0,0,10,3.45s.9.06,2.3.08,3.3,0,5.31,0l5.94-.22C123.14,107.19,124.69,107.12,125.53,107Z"/><path class="cls-41" d="M125.06,107.32c-1.07,0-2.31.16-3.26.25-.28,0-.63.09-1,.17s-.61.09-.89.15-.77.2-1,.26a7,7,0,0,0-.7.2,10.94,10.94,0,0,0-1.2.47l-.07,0,0,0h0l23.85-9.56h0l0,0-.18.25-.34.49-.65,1c-.22.32-.45.65-.7,1-.17.05-.15.63-.23,1s-.14.81-.23,1.21a10,10,0,0,1-2.18,4.36,5.76,5.76,0,0,0-.5,1,2.32,2.32,0,0,0-.2.73c.25.07.75.44,1,.52.45,1.33.4,2.79,1,3.9a2.46,2.46,0,0,1-.28,3,13.41,13.41,0,0,1-3.24,2.74c-1.3.95-2.22,1.93-3.34,2.8-1.91,1.5-8.39,1.19-9.51,2.29-1.16.84-.72,1.71-.24,2.66s1,1.94,0,2.69a12.36,12.36,0,0,1-4.59,1.95c-2,.17-3.37.55-5.19.7a15.91,15.91,0,0,1-3.23-.5c-.7-.29-.15-.46-.49-.77-.79-.8,2.26-.21,3.62-.27s.93-1,1.41-1.52a8.64,8.64,0,0,1,2.11-.31c1.56-.06.64-.81.22-1.41-.89-.8,1.45-1.14,1.35-1.89.07-1-3.18-2-1.68-2.65-.73.27-.76-.41-.58-1.09s.61-1.37,1-1c-.23-.06.94-.27,1.76-.32a13.09,13.09,0,0,1,1.58,0c1.87.55,5.09.54,7.66.8.15,0,.34-.65.76-1.41a5.15,5.15,0,0,1,2.09-2.3c1.85-.89,3.84-1.91,4.05-3.12-.21-.28-1.5-.25-1.72-.51A7.3,7.3,0,0,0,129,114c-.56-.34-1.21-.71-1.9-1.07l-1.05-.54c-.36-.18-.78-.48-1.17-.7-.79-.48-1.57-.91-2.3-1.28l-1-.52a4.44,4.44,0,0,0-.47-.22l-.38,0c-1-.11-1.57-.26-1.43-.45a10.75,10.75,0,0,1,3.28-2c.86-.34,1.58-.67,2.23-1l.47-.24.23-.12.06,0h0l-8.71,3.17h0l.1-.05.41-.19-.06,0,.91-.33c.4-.14.77-.21,1.37-.37s1-.18,1.61-.3l.55-.08c.34-.05.74-.07,1.23-.12A19.87,19.87,0,0,1,125.06,107.32Z"/><path class="cls-42" d="M79.71,81.09a4.91,4.91,0,0,1,1.08,2.28c.11,1.22-.61,2.47-4.06,3.11l-.58.28a12.71,12.71,0,0,0-1.27.71c-.91.57-1.79,1.27-1.68,1.67l-1.38.7a4.73,4.73,0,0,0-.25.77,7.65,7.65,0,0,0-.25,1.91,5.21,5.21,0,0,0,.52,2.38,4,4,0,0,0,2,1.93l.16.48c.09.29.2.66.29,1.09.18.84.27,1.71-.16,1.89a1.17,1.17,0,0,0,0,.44,3.3,3.3,0,0,0,.38,1.28c.55,1,1.89,2.75,5,4.43"/><path class="cls-43" d="M140,116.39a16.5,16.5,0,0,1-2.58,3.47,13.25,13.25,0,0,1-4,3.16,43.82,43.82,0,0,1-5.21,2.07,55.68,55.68,0,0,1-5.53,1.55c-.25.11-.35.27,0,.41,2,1,.44,1.83,1.39,2.74.33.39,1.21.86,1,1.19-1.16,1.78-4.41,2.87-8.57,3.21a51.31,51.31,0,0,1-6.39-.24,8.55,8.55,0,0,1-1.88-.41c-.52-.17-.16-.25-.31-.43.38,0,1.16.11,1.66.06,1.16,0,1.37-.44,2.66-.44a29.83,29.83,0,0,0,3.62-.24,2.26,2.26,0,0,0,1.16-.64,4,4,0,0,0,2.12-3.11c-1.81-.74-.32-1.22-.18-1.77.1-.16.54-.26.84-.44.3-.48-.47-1.08.95-1.34a34,34,0,0,0,8.44-2.17,17,17,0,0,0,4.18-2.92,14,14,0,0,0,3.06-3.57,3.11,3.11,0,0,0,.13-2.5,6,6,0,0,1-.45-2.55,4.12,4.12,0,0,1,2.43.65A3.48,3.48,0,0,1,140,116.39Z"/></g></g></g><path class="cls-5" d="M184.06,133.74l8.58,1.24a5,5,0,0,1,4.29,5v2.25H166.25c.47-2.87,2.31-3.92,5.69-5.69,3.08-1.61,4.94-2.37,4.94-2.37l7.19-.37"/><path class="cls-44" d="M185.38,134.3l-.21.52c-1.3,3.3-4.92,4.56-7.68,2.67l-2.62-1.8s0-4.83-.08-6.5,9.42-1.11,9.42-1.11A33.52,33.52,0,0,1,185.38,134.3Z"/><path class="cls-45" d="M173.08,129.51A2.84,2.84,0,0,1,171,128c-.66-1.33-1-3.62.8-4"/><path class="cls-46" d="M186.88,124s1-4.62.19-5.56l-1.16-.12-16.72-.06s-1.5,4.44,1.19,7S186.88,124,186.88,124Z"/><path class="cls-45" d="M185.09,129a2.84,2.84,0,0,0,1.77-1.83c.43-1.43.34-3.74-1.47-3.8"/><path class="cls-17" d="M185,122.18c.92,3.83.17,12.33-5.5,12.09s-7.35-6.5-7.58-10.67a40.35,40.35,0,0,1,1.79-3.87l10-.75,1.29,3.21"/><path class="cls-47" d="M185.91,118.76a11.66,11.66,0,0,1-.61,4.67s-1.58-4.25-2.25-4.5a12.89,12.89,0,0,1-3.83,2.58l.08-1.75s-5.69,1.94-6.1,5.1l-1.15-.69a5.58,5.58,0,0,1-2-3.08,5,5,0,0,1,.2-2.34"/><path class="cls-8" d="M185.29,123.43s-1.58-4.25-2.25-4.5a12.89,12.89,0,0,1-3.83,2.58l.08-1.75s-5.69,1.94-6.1,5.1l-1.15-.69"/><rect class="cls-48" x="163.29" y="119.46" width="1.98" height="21.76"/><path class="cls-18" d="M184.59,123.11l-1.94-2.34a8.8,8.8,0,0,1-4.37,2.41l-.22-1.09s-4.28,2-4.22,4.66L172.47,125l1,.5s-.69-2.81,5.31-5.09l-.06,1.66s3.06-.91,4.22-2.56A13.28,13.28,0,0,1,184.59,123.11Z"/><path class="cls-18" d="M184.53,131.46l.22,1.78s-1.44,2.88-4.12,2.88a13.66,13.66,0,0,1-5.31-1.31l.13-1.56a6.79,6.79,0,0,0,5,1.28A4.75,4.75,0,0,0,184.53,131.46Z"/><g class="cls-28"><g class="cls-29"><g class="cls-29"><path class="cls-37" d="M175.18,127.08a.34.34,0,0,0,.26.17,1.92,1.92,0,0,1,.31.09c.25.15,1.62,0,1.62.08a1.61,1.61,0,0,0,.21.87,1.13,1.13,0,0,0,.95,0c.16,0,.19-.1.25-.07s.16-.2.37-.27.43.08.6,0,.47,0,.75-.06a1.38,1.38,0,0,0,.6-.47,2.78,2.78,0,0,1,.83-.93c.25-.13.37-.34.59-.5s.36-.34.59-.5.45-.24.67-.38a.22.22,0,0,0,.06-.09s.07-.05.1-.07c.21-.06.41,0,.54,0a.13.13,0,0,0,.08-.13.83.83,0,0,0-.57-.55,1.13,1.13,0,0,0-.8.16,1.63,1.63,0,0,1-1.16,0c-.28-.11-.62-.33-.88-.08s-.4.71-.76.9-.32.06-.36,0l0-.06s0-.06,0,.19c0,0,0,0,0,0l0,0,0,0-.1,0a3,3,0,0,1-1.22.21,2.11,2.11,0,0,1-.66-.17,2.14,2.14,0,0,1-.38-.42c-.13-.17-.41-.13-.6-.06a3.75,3.75,0,0,1-.95.31c-.12,0-.23-.07-.38-.07a2.33,2.33,0,0,0-.92.39,1.44,1.44,0,0,0-.66.52,1.47,1.47,0,0,0-.1.25c0,.13,0,.12,0,.14s-.21.09-.3.23a.67.67,0,0,0,0,.59c.2.44.53.69.65,1.07,0,0,0-.07,0-.09a1.25,1.25,0,0,1,0-.75c.07-.21.16-.35.24-.53a.33.33,0,0,1,0-.14l.16-.23C174.83,126.63,175.16,126.91,175.18,127.08Z"/><path class="cls-38" d="M183.19,124.46a1.13,1.13,0,0,1,.8-.16.83.83,0,0,1,.57.55.13.13,0,0,1-.08.13c-.13,0-.33,0-.54,0,0,0-.09,0-.1.08a.23.23,0,0,1-.06.09c-.22.14-.43.25-.67.38s-.37.32-.59.5-.34.37-.59.5a2.82,2.82,0,0,0-.83.93,1.36,1.36,0,0,1-.6.46c-.28,0-.59,0-.75.06s-.4-.05-.6,0a3.1,3.1,0,0,0-.2-.35l.39,0a5.15,5.15,0,0,0,.9-.11c.3,0,.48-.38.57-.58s.14-.35.14-.35l.29-.3c.2-.21.46-.49.74-.76s.58-.53.81-.72S183.19,124.46,183.19,124.46Z"/><path class="cls-39" d="M179.2,127.75s-1.08.18-.84-.3a5.8,5.8,0,0,1,.63-.51,3.21,3.21,0,0,1,.56-.31c.15-.09.26-.15.35-.13a1.52,1.52,0,0,0,.38,0s.3.11.44-.24l.1-.17a5.15,5.15,0,0,1,.34-.47c.28-.37.62-.73.73-.7a2.72,2.72,0,0,1,.89-.42.92.92,0,0,0,.71-.07,2.11,2.11,0,0,1,.48,0c.21,0,.33.12.14.22,0,0-.2.18-.31.26a6.64,6.64,0,0,0-.87.49,7.76,7.76,0,0,1-1,.62,5.7,5.7,0,0,0-.94.8l-.36.39a.75.75,0,0,1-.22.17l-.25,0A2.76,2.76,0,0,0,179.2,127.75Z"/><path class="cls-40" d="M179.13,127.88s-.79.39-1-.11c0,0-.85-.75-.48-1a5,5,0,0,1,.89-.43,4.31,4.31,0,0,1,.85-.23c.12,0,.35,0,.39-.05a.45.45,0,0,1,.18,0s.06,0,.11-.18l.08-.07s.07-.06.17,0a.48.48,0,0,0,.21,0h.09l.15-.09a.8.8,0,0,0,.23-.21s.34,0,.41-.24l-.53.8c-.16.28-.42.59-.52.48s-.14,0-.32-.07a.84.84,0,0,0-.36.08,3.88,3.88,0,0,0-.69.32S178.56,127.53,179.13,127.88Z"/><path class="cls-41" d="M178.4,128.42c-.13.06-.28.14-.41.18a1.18,1.18,0,0,1-.24,0,.49.49,0,0,1-.24-.14c-.25-.3-.72-.42-.92-.75a.25.25,0,0,0-.11-.08l-.08,0a2.68,2.68,0,0,0-.39,0,.66.66,0,0,1-.51-.23,1.76,1.76,0,0,0-.26-.15c-.07,0-.09-.13-.16-.21s-.14-.16-.17-.16-.23.19-.21.25a1.18,1.18,0,0,1-.09.3,1.33,1.33,0,0,0-.16.42,1,1,0,0,0,0,.47.47.47,0,0,1-.06.2s-.08-.08-.12-.12,0-.26,0-.37-.05-.27,0-.41a.36.36,0,0,1,.1-.15c.08-.06,0-.16.05-.27s.16-.21.22-.3.11-.35.29-.37c-.08,0,.06-.06.2-.1s.3,0,.23,0,.06,0,.07.08,0,.07,0,.08-.06.26-.07.39l.17,0a.64.64,0,0,1,.27.11c.09.1.18.22.3.24s.06-.07.09-.07a5.52,5.52,0,0,1,1.29-.24c.06.05.13.16.09.22s0,.29,0,.45,0,.08,0,.12a.42.42,0,0,0,.12.3.65.65,0,0,0,.41.17Z"/><path class="cls-42" d="M181,124.58a1.66,1.66,0,0,1-.21.32,1.18,1.18,0,0,1-.63.43s-.12-.09-.1-.08l0-.05s0,0,0,.19c0,0,0,.07,0,0s.09,0-.44.17"/><path class="cls-43" d="M175.83,127.7a2.49,2.49,0,0,1-.53-.34c-.15-.15-.21-.29-.36-.44a.08.08,0,0,0-.05.06c-.05.22-.09.17-.09.29s0,.08,0,.1a1.6,1.6,0,0,0-.28.63,2.28,2.28,0,0,0-.09.44s0,.09,0,.11,0,0-.07-.06,0-.09,0-.14-.05-.2,0-.3a2.56,2.56,0,0,1,.08-.27,1.05,1.05,0,0,0,0-.16,2.06,2.06,0,0,1,.15-.48c0-.12,0-.13.12-.22l.1-.06s.07-.07.12,0,.22.23.34.33a4.77,4.77,0,0,0,.61.37c.15.07.33,0,.49.09S176.18,127.82,175.83,127.7Z"/></g></g></g></g></g></g></svg>