<svg xmlns="http://www.w3.org/2000/svg" width="113" height="38">
  <g fill="none" fill-rule="evenodd">
    <path fill="#FFF" d="M45.41 25.284c.796.393 1.59.655 2.65.655 4.11 0 5.302-2.228 5.302-4.586 0-2.227-1.988-4.192-5.83-4.192-3.844 0-6.627 1.703-6.892 6.68-.265 3.93 2.253 7.206 6.89 7.206 5.832 0 5.17-4.716 5.17-4.716-.53.655-1.59 1.31-3.844 1.31-3.578 0-3.445-2.358-3.445-2.358zm0-2.75c.133-.525.266-1.05.53-1.442.133-.262.266-.393.53-.655.53-.262 1.06-.524 1.59-.393.4.13.796.393 1.06.786.134.393.134.786 0 1.048-.264.524-.794.917-1.324 1.048-.662.13-1.59 0-2.253-.13-.132 0-.132-.132-.132-.263zM25.664 21.878c0-.524 0-.917-.398-1.31-.662-.524-1.325-.262-1.988 0-1.325.524-1.987-.13-2.252-.655-.266-.524-.398-1.703.397-2.227.795-.524 1.855-1.048 3.578-1.048 3.977 0 5.302 2.096 5.302 5.633v3.145c0 .917.663 1.572 1.59 1.572 1.326 0 1.724-1.048 1.724-1.572V20.83c0-2.096-.663-3.013-.663-3.013s1.458-.524 2.253-.524c.795 0 3.048 0 3.048 1.965v4.847c0 5.24 1.06 5.502 1.06 5.502s-1.325 1.31-3.048 1.31-2.783-1.44-2.783-1.44c-.662.785-1.723 1.44-3.18 1.44-3.976 0-4.904-2.75-4.904-4.323.264-3.93.264-3.93.264-4.716zM21.953 28.166c0-.13-.132-.13-.265 0-.397.786-1.325.917-2.12.786-.265 0-.53-.262-.663-.524-.132-.393-.398-1.048-.53-2.096-.265-2.096.132-4.323.398-6.68v-.394s.132-.524 0-1.18c-.398-1.44-2.518-1.44-3.314-1.44-.53 0-1.193.13-1.724.262-.397.13-.662.393-.397.786.264.393.53 1.18.53 2.096.132 1.572.53 6.55.794 7.336.53 2.096 1.458 3.8 4.24 4.06 2.784.132 3.314-2.095 3.05-3.012z"/>
    <path fill="#FFF" d="M15.062 37.074c-.398 0-.795-.13-1.326-.262-3.18-1.44-4.77-3.013-7.024-5.895C4.46 28.035 2.737 24.76 1.544 20.83.88 18.734.484 16.9.22 14.804c-.266-2.752-.134-4.98.53-7.075C.88 7.204 2.87-.263 10.952.916c2.783.393 4.904 1.572 6.23 3.537.53.786 1.06 2.096 1.192 3.144.132 1.44-.133 2.75-.928 3.8-.795 1.047-1.723 1.047-2.253.916-.397-.13-.662-.393-.927-.655-.133-.132-.265-.263-.53-.394-1.06-.655-2.52-.524-3.314 0-.662.393-1.325 1.18-1.723 2.096-.795 1.835-1.06 4.455-.795 6.29 1.06-.263 2.783-.394 3.58.523.396.393.926 1.572.264 2.358-.266.393-.797.393-1.194.524h-.133c-.662.13-1.325.262-1.855.524.663 2.49 1.59 4.848 2.916 7.075.53.917 1.192 1.703 1.855 2.49.53.654 1.06 1.31 1.854 1.833.663.524 1.458.917 1.06 1.703-.132.263-.265.525-.662.656-.133-.262-.265-.262-.53-.262zM79.735 17.817c-.397.262-1.192.393-2.385.524-.795 0-1.193 0-1.193-.654v-2.882c0-1.835-1.458-2.49-3.18-2.36-1.723.132-2.386.918-2.386.918s.53.656.53 1.704v11.79c0 1.965 1.46 3.668 3.314 4.192.398.13.796.13 1.193.13h.265c2.12-.13 3.843-1.702 4.11-3.798v-.524c0-.262 0-.524-.134-.524-.133-.13-.133 0-.133 0-.265.655-.927 1.048-1.722 1.048h-.53c-.663-.13-1.193-.655-1.326-1.31 0-.262 0-.393-.132-.655v-2.62c.132-.13.265 0 .397 0 .795 0 2.783-.13 3.446-1.31 0 0 .265-.524.265-1.44V18.47c.133-.524-.132-.655-.398-.655zM82.253 19.52c0-.524.133-1.048.398-1.44.4-.525 1.06-1.05 2.387-1.05 1.06 0 1.722.132 2.12.263v11.004c0 1.31-.795 2.49-2.65 2.49-1.06 0-1.856-.263-2.254-.525V19.52z"/>
    <ellipse cx="84.772" cy="13.231" fill="#FFF" rx="2.253" ry="2.227"/>
    <path fill="#FFF" d="M63.965 28.297c0 .786.795 2.62 2.65 2.62 1.856 0 2.783-.917 2.783-.917s-.53-.786-.53-1.834V22.01c0-3.145-2.12-4.717-4.903-4.717-2.783 0-3.446 1.834-3.446 1.834 0-.262-.134-.786-.53-1.18-.4-.392-.93-.785-1.857-.785-1.988 0-3.445 1.18-3.445 1.18s.927 1.178.927 2.88v7.206c0 .786.796 2.62 2.65 2.62 1.856 0 2.784-.917 2.784-.917s-.53-.785-.53-1.833v-5.502c0-.917.794-1.572 1.59-1.572.927 0 1.59.786 1.59 1.572l.265 5.502zM98.554 11.66c-.53.26-1.59.523-3.048.523-2.253 0-3.71.786-4.506 1.966-.662 1.047-.927 2.357-.927 3.798v10.218c0 1.048-.53 1.834-.53 1.834s.927.917 2.783.917c1.855 0 2.65-1.703 2.65-2.62v-5.502c0-.13.133-.13.398-.262.795-.13 1.723-.524 2.12-1.18 0 0 .265-.523.265-1.44V18.34c0-.26-.266-.392-.53-.26-.398.13-1.194.392-2.254.523v-.917c0-.655.398-1.18.928-1.31.928 0 2.385-.393 2.783-1.31 0 0 .265-.524.265-1.442v-1.572c0-.393-.265-.524-.398-.393zM104.65 19.258v6.157c0 .917.796 1.703 1.59 1.703.93 0 1.59-.786 1.59-1.703V20.96c0-2.095-.66-3.012-.66-3.012s1.59-.524 2.384-.524h.265c.927 0 2.915.262 2.915 2.096v11.528c0 1.048-.265 1.965-.663 2.882-1.192 2.358-3.578 3.8-6.36 3.668-1.194-.13-2.254-.524-3.182-1.31-.662-.655-1.192-1.703-1.325-2.62 0-.13 0-.13.133-.13h.132c.398.392.795.654 1.325.785.265.13.663.13.928.13h.265c.928 0 1.855-.26 2.518-.916.663-.655 1.193-1.572 1.193-2.62v-1.18c-.664.656-1.46 1.31-3.314 1.31-3.844-.13-4.77-2.75-4.77-4.322V20.96c0-1.44-.266-2.357-.53-2.75-.134-.13 0-.393.13-.393.53-.13 1.46-.393 1.99-.524h.662c1.192 0 2.783.262 2.783 1.965z"/>
    <path fill="#7BBC00" d="M23.278 32.75c-.265-.916-.795-.916-1.192-.523-.398.393-1.458 1.048-2.386 1.31-.927.262-1.06.262-1.06.655s.795.655 1.06.786c.663.393 1.193 1.048 1.193 1.703 0 .656.663.525.928.263.796-.786 1.856-2.096 1.458-4.192z"/>
  </g>
</svg>