<svg xmlns="http://www.w3.org/2000/svg" viewBox="0 0 181.67 214.99"><defs><style>.cls-1{isolation:isolate;}.cls-2{fill:#d7ff64;}.cls-10,.cls-11,.cls-12,.cls-13,.cls-14,.cls-3,.cls-32,.cls-41,.cls-8,.cls-9{fill:none;}.cls-10,.cls-11,.cls-12,.cls-13,.cls-14,.cls-15,.cls-18,.cls-19,.cls-20,.cls-21,.cls-22,.cls-3,.cls-34,.cls-35,.cls-6,.cls-8,.cls-9{stroke:#005ea5;stroke-miterlimit:10;}.cls-4{fill:#c6dc94;}.cls-5{fill:#dff4a6;}.cls-6{fill:#d0e9ed;stroke-width:4px;}.cls-7{fill:#e1eff1;}.cls-10,.cls-11,.cls-12,.cls-19,.cls-21,.cls-8,.cls-9{stroke-width:3px;}.cls-9{stroke-dasharray:12.09 12.09;}.cls-10{stroke-dasharray:10.31 10.31;}.cls-11{stroke-dasharray:11.05 11.05;}.cls-12{stroke-dasharray:10.31 10.31;}.cls-13,.cls-14,.cls-15,.cls-20,.cls-22,.cls-34,.cls-35{stroke-width:2px;}.cls-14{stroke-dasharray:9.44 9.44;}.cls-15{fill:#eee7c7;}.cls-16,.cls-18,.cls-34{fill:#e6dcc1;}.cls-16,.cls-24,.cls-25{mix-blend-mode:multiply;}.cls-17{fill:#005ea5;}.cls-19{fill:#f7cb8e;}.cls-20,.cls-21{fill:#ffdcb5;}.cls-22{fill:#d8caa7;}.cls-23{fill:#b3f1f4;}.cls-24{fill:#cee3f1;opacity:0.43;}.cls-25{opacity:0.65;}.cls-26,.cls-28,.cls-37{opacity:0.9;}.cls-27{fill:#f6fafc;}.cls-28{fill:#e7f1f8;}.cls-29{fill:#ecf4fa;}.cls-30{fill:#f1f7fb;}.cls-31{fill:#fafcfd;}.cls-32{stroke:#f0f7fb;}.cls-32,.cls-41{stroke-width:0;}.cls-33{fill:#fdfeff;}.cls-35{fill:#ccbf9f;}.cls-36{fill:#fcf5ef;}.cls-37{fill:#f6e6d5;}.cls-38{fill:#f8ebde;}.cls-39{fill:#faf1e7;}.cls-40{fill:#fdf9f6;}.cls-41{stroke:#faefe5;}.cls-42{fill:#fefdfc;}</style></defs><title>profile_1</title><g class="cls-1"><g id="Livello_2" data-name="Livello 2"><g id="Livello_1-2" data-name="Livello 1"><circle class="cls-2" cx="153.47" cy="116.23" r="3.28"/><circle class="cls-3" cx="152.61" cy="116.23" r="3.73"/><polygon class="cls-4" points="124.75 10.58 119.69 7.82 124.75 5.05 127.51 0 130.28 5.05 135.33 7.82 130.28 10.58 127.51 15.64 124.75 10.58"/><polygon class="cls-5" points="4.34 136.5 0 134.13 4.34 131.76 6.71 127.42 9.09 131.76 13.43 134.13 9.09 136.5 6.71 140.84 4.34 136.5"/><path class="cls-6" d="M163,161.24c14.17,12.5,15.5,21.5,16.5,27.83s-2.08,14-15.46,14H36.63c-13.37,0-16.46-7.68-15.46-14s2.33-15.33,16.5-27.83c13-11.5,33.67-21,36-26s.48-14.44.48-14.44"/><path class="cls-7" d="M145.67,80.57c0-10.13,0-18.33-6.65-18.33a2.48,2.48,0,0,0-.41.06c-1.39-21.08-7.9-36.17-38.27-36.17S63.45,41.21,62.06,62.29a2.48,2.48,0,0,0-.41-.06C55,62.24,55,70.44,55,80.57c0,8.84,5.07,16.22,8.8,17.95,5.24,21.37,19.61,36.72,36.53,36.72s31.29-15.35,36.53-36.72C140.6,96.79,145.67,89.41,145.67,80.57Z"/><path class="cls-8" d="M143.7,64.75A5.1,5.1,0,0,0,139,62.24a2.45,2.45,0,0,0-.41.06c-.14-2.05-.32-4-.57-6"/><path class="cls-9" d="M135.24,44.58c-4.41-11.32-14-18.46-34.9-18.46-24.25,0-33.29,9.62-36.65,24.23"/><path class="cls-8" d="M62.63,56.32c-.25,1.93-.43,3.92-.57,6a2.45,2.45,0,0,0-.41-.06A5.1,5.1,0,0,0,57,64.75"/><path class="cls-10" d="M55.05,74.77C55,76.6,55,78.54,55,80.57A24.37,24.37,0,0,0,56.93,90"/><path class="cls-8" d="M59.44,94.49a12.37,12.37,0,0,0,4.37,4q.73,3,1.68,5.76"/><path class="cls-11" d="M69.94,114.38C77,127.08,88,135.24,100.33,135.24c13.87,0,26-10.32,32.85-25.81"/><path class="cls-8" d="M135.18,104.28q1-2.8,1.68-5.76a12.37,12.37,0,0,0,4.37-4"/><path class="cls-12" d="M145.23,85.07a23.74,23.74,0,0,0,.44-4.5,82.47,82.47,0,0,0-.44-10.93"/><path class="cls-13" d="M126.52,119.79a44.2,44.2,0,0,0-.67,6"/><path class="cls-14" d="M127.41,134.92c3,4.08,15.74,10.68,27.13,18.72"/><path class="cls-13" d="M158.36,156.44c1.62,1.24,3.18,2.5,4.64,3.79"/><polyline class="cls-15" points="40.33 158.72 40.33 49.23 90.25 15.43 90.25 3.98 21 35.57 21.17 189.07"/><polygon class="cls-16" points="90.79 11.43 33.25 46.82 33.25 165.44 40.33 158.72 40.33 49.23 90.25 15.43 90.79 11.43"/><path class="cls-17" d="M33.25,161.94c-.14-4.8-.24-9.59-.33-14.39s-.2-9.59-.24-14.39c-.09-9.59-.3-19.19-.3-28.78L32.26,75.6l.1-28.78h0a.88.88,0,0,1,.42-.74c4.31-2.66,8.59-5.36,12.93-8l13-7.9q6.48-4,13-7.85c4.35-2.6,8.69-5.21,13.06-7.77-4.21,2.82-8.45,5.58-12.69,8.36s-8.48,5.54-12.74,8.27L46.54,39.42C42.3,42.18,38,44.86,33.72,47.57l.42-.75.1,28.78-.12,28.78c0,9.59-.2,19.19-.3,28.78,0,4.8-.14,9.59-.24,14.39S33.4,157.14,33.25,161.94Z"/><rect class="cls-18" x="103.83" y="139.57" width="74.33" height="4.51"/><rect class="cls-16" x="103.83" y="139.57" width="74.33" height="2.26"/><polyline class="cls-13" points="109.25 61.23 94.42 15.73 89.42 15.73 73.75 61.23"/><path class="cls-19" d="M84.5,162.8c-3.67,3.9-15.17,17.94-19,29.22-2,5.87-4,9.21-5.52,11.06H36.63c-13.38,0-16.46-7.68-15.46-14s2.33-15.33,16.5-27.83a133,133,0,0,1,15.78-11.5c10.12,9.85,27.34,8.15,27.34,8.15C85.79,160.43,88.17,158.9,84.5,162.8Z"/><path class="cls-20" d="M80.79,157.88c.15.38-1.09,1-1.65,1.64-4,4.35-16.61,19.64-21.32,32.21a50.1,50.1,0,0,1-5.64,11.34H36.63c-13.38,0-16.46-7.68-15.46-14s2.33-15.33,16.5-27.83a133,133,0,0,1,15.78-11.5C62.77,158.81,80.64,157.51,80.79,157.88Z"/><path class="cls-21" d="M74.15,120.81c.1.51,1.78,9.57-.48,14.43C72.4,138,65.7,142,57.76,147a33.44,33.44,0,0,0,28,6.32c9.07-2,9.22-18.07,9.22-18.6C87,133.16,79.8,128.15,74.15,120.81Z"/><path class="cls-19" d="M88.16,132.46a42,42,0,0,1-2,14.43,15.13,15.13,0,0,1-4.8,7.1s7.71.36,10.6-5.82a38,38,0,0,0,3-13.45A30.36,30.36,0,0,1,88.16,132.46Z"/><rect class="cls-22" x="91.07" y="3.42" width="3.14" height="5.31"/><ellipse class="cls-22" cx="93.66" cy="12.86" rx="2.16" ry="5.04"/><ellipse class="cls-23" cx="91.77" cy="12.86" rx="2.43" ry="4.13"/><ellipse class="cls-22" cx="89.34" cy="12.86" rx="2.16" ry="5.04"/><path class="cls-24" d="M76.37,93.61c.13-14,6.53-22,7-36,.36-11.93.11-25.66,6.42-30.71C68.37,30.12,63.27,43.93,62.06,62.29a2.48,2.48,0,0,0-.41-.06C55,62.24,55,70.44,55,80.57c0,8.84,5.07,16.22,8.8,17.95C68.48,117.58,80.42,131.84,95,134.7,94.7,134.32,76.23,107.55,76.37,93.61Z"/><g class="cls-25"><g class="cls-26"><g class="cls-26"><path class="cls-27" d="M116.27,135.43a3.4,3.4,0,0,0,2.53-1.71,9.62,9.62,0,0,0,.87-1.7,19.54,19.54,0,0,0,.57-2.21,23.37,23.37,0,0,0,.29-5.2c0-.8-.12-1.73-.19-2.45a9.37,9.37,0,0,1-.07-1.58,13.26,13.26,0,0,0-.49-2.73,12.92,12.92,0,0,0-.62-1.72c-.26-.62-.57-1.26-.91-1.9s-.87-1.45-1.37-2.17c-.26-.37-.51-.72-.81-1.1s-.64-.77-1-1.15a22.92,22.92,0,0,0-2.25-2.21q-.62-.53-1.28-1l-.33-.25a2.14,2.14,0,0,0-.25-.18l-.24-.13-.5-.25c-.07,0-.21-.11-.21-.1h-.09a2.9,2.9,0,0,0-.37,0,6.83,6.83,0,0,0-.85.16c-.61.15-1.3.36-2,.5a5.9,5.9,0,0,1-1.87.11,9.62,9.62,0,0,1-1.47-.2c-.8-.19-1.23-.44-.83-.74,1.11-.79,4.08-3.49,7-5.79s5.68-4.26,5.9-4.48c.63-.6.46-.63-.39-.46s-2.4.55-4.46.88c-1.8.24-3.08.49-2.71.21a4.45,4.45,0,0,0-.75.11c-.48.08-1.14.2-1.89.31a18.9,18.9,0,0,1-4.64.21,2.33,2.33,0,0,1-.91-.33,3.11,3.11,0,0,1-.57-.65A3,3,0,0,0,97.4,94.3,13,13,0,0,1,93,90.16c-1.37-1.83-2.53-3.81-3.35-4.83C86.59,81.4,86.06,79.2,87.74,76c1.73-2.42.44-4.45,1.2-6.94.53-2.61.07-4.52.67-7.14a16,16,0,0,0,2.27-7.33,1.9,1.9,0,0,0-.72-1c-.44-.3-.19-1-.33-1.35,1-2.12,3.86-3.83,3.56-6.12a2.21,2.21,0,0,0-2.2-1.58,44.56,44.56,0,0,0-13.81,3.33c-3.57,1.52-3.87,3.92-5,6.34-1.42,3.35-8.33,5.32-15,6.72-5.17.92-13.2,1.45-13,4.77.56,3.92,4.49,7.5,2,11.51-1.95,2.82-3.73,5.21-4.51,8.3a11,11,0,0,0-1.23,2.83c.82,3.47-.7,8,4.45,10a16.87,16.87,0,0,1,1.52,4.94,9.18,9.18,0,0,0,.34,1.08c.14.38.3.63.54,1.15a9,9,0,0,0,2.23,2.74c2.79,2.28,5.78,4.22,8.39,6.13a37.73,37.73,0,0,1,3.66,2.88,16.75,16.75,0,0,1,2.89,3.17,25.18,25.18,0,0,1,4.23,8.07c.22.5-.15,2.28-.44,4.15l-.85,5a3.91,3.91,0,0,0,.32,2.38,3.87,3.87,0,0,0,.28.48l.17.22,0,.05h0l.05,0h0l0,0,.1.1a4.65,4.65,0,0,0,.91.68,6.57,6.57,0,0,0,2.24.77,9.72,9.72,0,0,0,2.45,0,77.61,77.61,0,0,1,7.83-1.31l.47,0c.15,0,.32,0,.43-.15l.71-.67.09-.08,0,0h0l9-11.64h0l0,0,0,0-.17.14a4,4,0,0,1-.41.3,10.41,10.41,0,0,1-1.31.69c-.15,0-.43.19-.68.3s-.5.21-.76.29-.5.15-.77.23-.66.23-1,.32c-.69.21-1.31.32-2.1.48a26.48,26.48,0,0,1-2.72.52c-.58.09-1,.1-1.75.23l-.49.07-.24,0c-.1,0,0,0,0,0h.11a2.06,2.06,0,0,1,.58.06,14.06,14.06,0,0,1,1.51.57,16.22,16.22,0,0,1,1.65.93,8.5,8.5,0,0,1,1.36,1.21c1.08,3.31,2,5.3,2.76,6.12s1.29.79,1.09.91c-.09.78-2.86.59-3.55,1.42-.61,1.21.62,2.77,2,4,3.72,3.46,7.3,7.84,4,10.55.62-.05,1.43.08,1.55-.13,4.45-3.81,11.3-6.32,11.79-11.87a5.29,5.29,0,0,1-.81-2,10.65,10.65,0,0,0-.08-3.28c.07-.9,1.9-1.9,4.14-2.86A29.57,29.57,0,0,1,116.27,135.43Z"/><path class="cls-28" d="M73.5,54.21c1.11-2.42,1.4-4.82,5-6.34a44.48,44.48,0,0,1,13.81-3.33,2.2,2.2,0,0,1,2.2,1.59c.3,2.29-2.53,4-3.56,6.11.14.38-.1,1.06.34,1.35a1.92,1.92,0,0,1,.73,1A16,16,0,0,1,89.72,62c-.59,2.62-.14,4.53-.66,7.13-.76,2.49.53,4.52-1.21,6.94-1.68,3.23-1.14,5.43,2,9.35.82,1,2,3,3.35,4.82a13,13,0,0,0,4.38,4.13,3,3,0,0,1,1.71,1.24,2.58,2.58,0,0,0,.57.64,2.29,2.29,0,0,0,.9.32s-.49.2-1.35.63a31.87,31.87,0,0,0-3.64,2.15q-1.4-.46-2.83-1.09c-.47-.21-.93-.44-1.41-.69L90,96.63c-1.9-1.26-3.81-2.63-5.66-4.09A129.78,129.78,0,0,1,73.54,82.9,248.79,248.79,0,0,1,73.5,54.21Z"/><path class="cls-29" d="M96,97.55l1.5.55a20.14,20.14,0,0,1,2.5,1.07c.66.4,1,.81.58,1.41s-1.66,1.4-4.19,2.37c0,0-1.62.42-4.11.81a45.84,45.84,0,0,1-9.37.51A30.24,30.24,0,0,1,73,102.18a17,17,0,0,1-2-1,14.21,14.21,0,0,1-1.56-1,3.9,3.9,0,0,1-1.65-2.07l-.57-2.34c-.33-1.3-.73-2.86-1.11-3.91a10.33,10.33,0,0,0,1.63-2.61,5.66,5.66,0,0,0-.51-5.66,66.92,66.92,0,0,1-2.95-8.7c-1.15-4.45-1.64-9,.27-9.54a27.54,27.54,0,0,1,1.51-3.55c.95-1.86,2.28-3.88,3.76-4.62a25.48,25.48,0,0,0,3.79-1.35c1.86-.85,3.65-2.06,3.35-3.57a33.68,33.68,0,0,1,4.42-3.46c2.27-1.43,4.63-2.28,5,0A26,26,0,0,1,88.32,53s-1.24,4.58-2.65,9.29-3,9.6-4.19,10.11a20.56,20.56,0,0,0-1.17,3.32,22.15,22.15,0,0,0-.67,8,14.74,14.74,0,0,0,9,12.38,19.09,19.09,0,0,0,3.37,1.11A18,18,0,0,0,96,97.55Z"/><path class="cls-30" d="M98.94,97.13l1.81.12c1,.07,2.3.14,3.33.24,2.06.25,3,.45-.67,3,0,0-2,2.11-4.34,5.09-1.2,1.48-2.5,3.14-3.88,4.58a10.22,10.22,0,0,1-4.56,3.1s-.41.11-1.15.26a30.1,30.1,0,0,1-3.1.47,31.12,31.12,0,0,1-9.93-.64,27.1,27.1,0,0,1-11.22-5.44,22.54,22.54,0,0,1-4.3-4.76,12.91,12.91,0,0,1-2.29-4.44,1.93,1.93,0,0,0-.63-.9,14.3,14.3,0,0,0-3.82-2.39,9.19,9.19,0,0,1-.68-1,10.76,10.76,0,0,1-1.09-2.5,4.7,4.7,0,0,1,2.25-5.82s.43-.51,1.06-1.32S57.2,82.9,58,81.72c1.6-2.35,3.08-5,2.4-6.6a11.17,11.17,0,0,0,2-1.51c.85-.86,1.46-1.94.51-2.86,0,0,2.09,4.47,3.75,9.12s2.95,9.51.52,10.82a4.84,4.84,0,0,0-.53,1.46A6.29,6.29,0,0,0,67,95.9a8.49,8.49,0,0,0,1.48,2.38,12.9,12.9,0,0,0,2.83,2.43,19.43,19.43,0,0,0,4.58,2.38,24.68,24.68,0,0,0,6.52,1.36s.89-.13,2.26-.45a45.35,45.35,0,0,0,5.1-1.54C93.55,101.06,97.6,99,98.94,97.13Z"/><path class="cls-31" d="M113.47,94.89A38.07,38.07,0,0,0,119,93c.59-.26.38-.15.69-.31s-.69.38-1.3.79a13.61,13.61,0,0,0-3.72,3.31c-.87,1.11-1.81,2.54-3.47,4.86-.34.54-.47.85-.4,1,.2-.17.63-.44.83-.61a1.25,1.25,0,0,1,.65.2l.15.07.08,0,.4.25.41.24c.08.05.11.05.23.14l.61.47c.81.63,1.61,1.28,2.38,2a24.54,24.54,0,0,1,3.38,3.55c.46.61.89,1.23,1.3,1.87q.3.48.58,1c.19.33.31.59.46.9q.43.89.79,1.81a14.34,14.34,0,0,1,.59,1.75,23.34,23.34,0,0,1,.62,3.2,24.13,24.13,0,0,1,0,2.71l0,.67c0,.2-.06.38-.09.57q-.1.56-.23,1.11t-.27,1.09a5.87,5.87,0,0,1-.33,1c-.25.6-.52,1.19-.8,1.76l-.41,1-.41.86-.77,1.76a31.27,31.27,0,0,1-1.64,3c-1,1.51-3.15,2.19-5.2,2.69s-4,1-4.64,2.12c-1.32,1.76-1.06,3.51-.77,5.33s.6,3.63-.58,5.21c-1.71,1.76-2.81,3.4-5.26,4.72-2.21.88-3.71,2.06-5.74,3.06a9.52,9.52,0,0,1-3.42.29c-.69-.35,0-1-.3-1.59-.61-1.56,2.56-1.44,4-2,1.58-.78,1.27-2.38,1.93-3.7A6.36,6.36,0,0,1,101.7,150c1.66-.43.86-1.81.59-3-.7-1.56,1.78-2.61,1.85-4.15.13-1-.54-2-1.09-3s-.88-1.83-.08-2.6c-.79.63-.68-.88-.44-2.42s.67-3.14,1-2.32c-.23-.14.93-.63,1.75-.75a5.54,5.54,0,0,1,1.58.06c1.89,1.28,5.08,1.23,7.66,1.8a15.41,15.41,0,0,0,.71-3.29c.09-.44.17-1,.25-1.52s.19-1.08.3-1.64.19-1.2.32-1.75c.06-.28.14-.54.21-.8s.13-.57.21-.82a22.45,22.45,0,0,0,.78-2.47,18.27,18.27,0,0,0,.3-3,14.57,14.57,0,0,0-.64-3.56,16.76,16.76,0,0,0-.9-2q-.27-.51-.58-1c-.23-.35-.49-.72-.76-1.07-1.35-1.31-2.92-1-4.38-2.06-.1-.08-.24-.18-.41-.3l-.29-.19c-.11-.07-.11,0-.18-.06s-.48-.1-.81-.15c-.07,0-.19,0-.23,0l-.14.06-.31.14-.76.37a45.06,45.06,0,0,1-4.39,2,10.66,10.66,0,0,1-2.38.59,16.32,16.32,0,0,1-1.94.09c-1.14,0-1.86-.26-1.81-.56a7.61,7.61,0,0,1,2.71-3.17c3.15-2.17,4.21-3.74,6.77-5.64.69-.5,1.59-1,2.29-1.48,1.85-1.41,4-3,4.37-3.4,1.13-1,1.44-1.39.67-1.27C113.47,95.37,113.47,95.13,113.47,94.89Z"/><path class="cls-32" d="M46.34,68.52A9.31,9.31,0,0,1,48,72.18c.46,2.19.15,5-2.91,8.08A30.62,30.62,0,0,0,43.69,83c-.68,1.44-1.27,3.07-1,3.64L41.6,88.41s0,.52,0,1.34A18.86,18.86,0,0,0,42,92.82a10.82,10.82,0,0,0,1.31,3.34,4.35,4.35,0,0,0,2.6,2l.31.64c.18.38.42.91.66,1.47.46,1.12.83,2.32.49,2.71a2.35,2.35,0,0,0,.12.61,4.91,4.91,0,0,0,.27.7c.06.13.14.28.22.43s.18.29.31.53a14.64,14.64,0,0,0,6.58,5.88"/><path class="cls-33" d="M125.11,113.43c.12.33.26.74.4,1.22s.22.9.34,1.43.22,1.11.33,1.73c0,.31.11.65.14.95l.06.86a23.85,23.85,0,0,1-.44,6.92,15.58,15.58,0,0,1-3.77,7.76,42.46,42.46,0,0,1-11.25,7.46c-.27.23-.41.56-.13.8a2.83,2.83,0,0,1,.84,2.66,4,4,0,0,0,0,2.46c.27.71,1.06,1.44.77,2.09-1.54,3.4-5.15,5.85-9.64,7.71-2,.76-4.54,1.13-6.84,1.74a4.93,4.93,0,0,1-2,0c-.54-.09-.1-.53-.22-.86.43-.24,1.25-.31,1.82-.63,1.27-.52,1.62-1.5,3-1.92a32.28,32.28,0,0,0,3.92-1.53,4.31,4.31,0,0,0,1.39-1.56,13.18,13.18,0,0,0,2.94-6.56c-1.7-1.28,0-2.44.2-3.55.13-.32.61-.58,1-.95.39-1-.29-2.21,1.21-2.77a38.72,38.72,0,0,0,4.68-1.9,20.09,20.09,0,0,0,4-2.72,14.45,14.45,0,0,0,1.92-2.45c.35-.62.72-1.31,1.08-2.05l.27-.57.24-.66c.16-.45.31-.9.46-1.37a20.49,20.49,0,0,0,.8-6.7,12.88,12.88,0,0,0-.17-1.86c-.09-.63-.19-1.22-.3-1.77a12.66,12.66,0,0,0-.43-1.63c-.16-.52-.33-1-.48-1.35a16,16,0,0,0-.63-1.53q-.41-.83-.88-1.63t-1-1.56c-.38-.53-.8-1.07-1.23-1.58a24.11,24.11,0,0,0-2.83-2.88c-.5-.44-1.06-.89-1.55-1.27l-.53-.33-.27-.16a1.15,1.15,0,0,0-.2-.11l-.12,0-.24-.05a.39.39,0,0,1-.31-.29l.15-.17.41-.4c.34-.32.78-.73,1.21-1.08.21-.17.42-.34.61-.46l.27-.16a6.43,6.43,0,0,1,.93.4l.13.06.06,0,0,0,.09.07.78.59c.52.41,1,.85,1.56,1.31a27.87,27.87,0,0,1,3,3.14,27.5,27.5,0,0,1,2.56,3.67A26,26,0,0,1,125.11,113.43Z"/></g></g></g><rect class="cls-34" x="64" y="62.35" width="32.69" height="8.16"/><rect class="cls-35" x="96.4" y="62.35" width="24.53" height="8.16" transform="translate(217.34 132.87) rotate(180)"/><g class="cls-25"><g class="cls-26"><g class="cls-26"><path class="cls-36" d="M21.53,195.09a4.42,4.42,0,0,0-.67,4.9,12.7,12.7,0,0,0,.58,1.2l.7,1.11a6.43,6.43,0,0,1,.95,1.63,2.73,2.73,0,0,0,.61,1,6.24,6.24,0,0,0,1.1,1,13.24,13.24,0,0,0,1.72,1,20.24,20.24,0,0,0,2.45,1c.49.16,1.08.33,1.63.46l.86.19.95.18a26,26,0,0,0,4.71.38c.45,0,.9,0,1.35,0s.87-.06,1.46-.13a25.41,25.41,0,0,0,3.23-.6,14,14,0,0,0,1.46-.44q.68-.24,1.34-.51a17.25,17.25,0,0,0,2.4-1.18c.66-.4,1.3-.82,1.91-1.26a8.43,8.43,0,0,0,.8-.63l.65-.59c.42-.4.83-.8,1.21-1.2s.57-.69.83-1,.5-.67.72-1a8.82,8.82,0,0,0,.51-.85c.29-.52.57-1,.78-1.47a17.57,17.57,0,0,1,.83-1.79c.18-.34.36-.48.55-.34a15.26,15.26,0,0,0,3.06,1.73c1.44.66,3.24,1.31,4.95,1.92A32.47,32.47,0,0,0,70,201a4.74,4.74,0,0,0,2.68.12c3.18-2.17,2.37-5.42-.61-8.8-1.24-1.59-2.39-2.19-1.85-2.36.11-.11-4.06-2.52-6-4.4-1.17-1.25-.25-1.74-1.74-3-2-2.09-3.23-6.13-4.25-7.72-1.92-3-2-4.19.1-5.11,2-.52,1.15-1.94,2.2-2.86.86-1.06.66-2.13,1.52-3.18A4.63,4.63,0,0,0,65,160.87a1.55,1.55,0,0,0-.59-.74c-.39-.29-.1-.53-.2-.75,1.16-.67,4-.55,3.86-1.68,0-.3-.88-1.11-1.94-1.45a73.35,73.35,0,0,0-13.27-3c-3.49-.44-4,.62-5.25,1.4-1.65,1.12-8.35-.25-14.78-1.85-5-1.31-12.55-3.78-12.74-2.35.1,1.79,3.35,4.6.45,5.2-2.21.33-4.23.47-5.45,1.15a5.15,5.15,0,0,0-1.61.37c.15,1.34-2.07,1.79,2.13,4.3,1,1.71-1,1.37,1.79,3.46,3.77,2.72,7.91,5.84,8.59,7.14a1.32,1.32,0,0,1,.34.68.07.07,0,0,1-.05,0s0,0,0,0l0,0h0l.06,0,.11.07q.89.58,1.76,1.19c.57.39,1.2.88,1.67,1.19s.94.66,1.62,1.18L33.49,178c.33.27.65.54,1,.82s.62.59.83.76c.46.4.83.77,1.06,1,.45.51.83.86,1.21,1.32.18.21.39.53.53.7a5.19,5.19,0,0,1,.42.59l.18.32c.06.11.1.15.14.23a2.91,2.91,0,0,1,.22.46c.06.2.09.21.13.32a1.5,1.5,0,0,1,.06.28.51.51,0,0,1,0,.16v0h0v-.61a2,2,0,0,1,0-.27c0-.13.06-.42.12-.67a3.53,3.53,0,0,1,.11-.37l.14-.47a23.33,23.33,0,0,1,2.61-5c.24-.37.5-.72.75-1.07s.55-.79.84-1.17.6-.78.92-1.17.7-.9,1.08-1.35l1.27-1.47-.4.4a12.42,12.42,0,0,1-1.17,1,12.23,12.23,0,0,1-2.74,1.62,13.19,13.19,0,0,0-4.22.48c-.9.31-1.26.68-1.16.51-.25-.24,1.85-2,2-2.66,0-.65-1.59-.2-3.15.42-4.22,1.62-8.91,2.71-7.66,0-.45.39-1.12.85-1.12,1-1.65,3.68-5.49,8.81-3.33,10.75.49,0,1.2-.16,1.49,0a3.29,3.29,0,0,0,1.47.91c.33.31-.55,1.88-1.75,3.76A49.45,49.45,0,0,1,21.53,195.09Z"/><path class="cls-37" d="M47.68,154.71c1.27-.78,1.75-1.83,5.25-1.4a73.29,73.29,0,0,1,13.27,3c1.06.34,1.93,1.14,1.94,1.44.1,1.13-2.7,1-3.86,1.68.1.22-.19.47.2.75a1.57,1.57,0,0,1,.59.74,4.64,4.64,0,0,1-2.88,2.76c-.86,1.05-.65,2.12-1.52,3.18-1.06.92-.17,2.34-2.21,2.86-2.13.92-2,2.07-.1,5.12,1,1.59,2.23,5.63,4.25,7.73,1.49,1.26.57,1.76,1.73,3,0,0-2.06-.39-5.59-.86A186.64,186.64,0,0,0,43.9,167.51Z"/><path class="cls-38" d="M59.94,183.68a12.94,12.94,0,0,1,2.15,3.82c.22.83.11,1.54-.63,1.7s-2.09-.26-4.41-1.62c0,0-5.34-4.07-10.88-8s-11.19-7.83-11-9a9.5,9.5,0,0,0,.06-2.67,6.94,6.94,0,0,0,2.08-.25c.92-.29,1.62-.95.68-2.3a30.75,30.75,0,0,1-1.3-4.56c-.42-2.24-.36-4.41,1.49-4,0,0,2.9-2.23,5.82-1.95,0,0,7.48,1.64,7.19,0a35.12,35.12,0,0,1,4.46-.21c2.25.06,4.55.44,4.75,1.65A14.52,14.52,0,0,1,61.76,159s-1.56,1.78-3.42,3.55-4,3.49-5.24,3.3c0,0-3.06,1.47-3.7,4.35S50.56,177.25,59.94,183.68Z"/><path class="cls-39" d="M62.56,185s.6.49,1.36,1.23a18.18,18.18,0,0,1,2.29,2.65c1.24,1.9,1.28,3.77-3.09,2.83a33.54,33.54,0,0,1-6.73,0,26.86,26.86,0,0,1-2.81-.49,16.24,16.24,0,0,1-2.71-.93,11.44,11.44,0,0,1-4.28-3.17s-1-1.29-2.76-3.08-4.13-4.05-6.67-6.27c-5.06-4.43-10.49-8.8-10.38-10.95,0,0,.18-.41-3.23-2.71,0,0-3.11-3.63,2.3-2.63a33.31,33.31,0,0,0,3.84-.28c1.88-.27,3.66-.78,3.26-1.68,0,0,4.46.51,2.89-.94a34.7,34.7,0,0,1,2.15,5.1c.76,2.48.88,4.8-1.63,4.27,0,0-1.73.19-1.39,1.64s2.76,4.09,10.68,9.77c0,0,3.12,1.79,6.78,3.45S60.33,185.9,62.56,185Z"/><path class="cls-40" d="M74.5,194.12c.68.74,1.46,1.57,2.18,2.44a17.71,17.71,0,0,1,1.87,2.52c.28.83-.31,1.44-.38,2.27a1.85,1.85,0,0,1-1.07,1.14,11.57,11.57,0,0,1-1.69.65,9.66,9.66,0,0,0-2.09.48c-.71.26-1.38.55-2,.86s-1.46.81-2.18,1.21l-.55.31-.64.4q-.64.39-1.28.76A42.22,42.22,0,0,1,60,210.4l-.48.16-.24.08-.29.11q-.59.21-1.17.39a19,19,0,0,1-2.29.54l-.56.08-.67.12q-.67.11-1.32.17a15.48,15.48,0,0,1-2.49,0c-.46,0-1,.08-1.55.13l-1.54.15-1.53.18-1.7.22a13.83,13.83,0,0,1-2.06.72c-.87.25-1.76.45-2.13.58l-.75,0h-.62l-1.24,0c-.83,0-1.65-.13-2.47-.25a33,33,0,0,1-4-.89c-1.09-.33-2-.66-3-1l-1.26-.46L25.42,211a9.39,9.39,0,0,1-1.72-.65,8.13,8.13,0,0,1-1.4-.89,7.44,7.44,0,0,1-1-1,5.22,5.22,0,0,1-.75-1.15,9.87,9.87,0,0,1-.86-5.06c0-.9-.07-1.73-.1-2.51a15.5,15.5,0,0,1,0-2.29c.18-2.55,4.95-6.9,4.94-8.54.19-1.46-.77-1.8-1.8-2.14s-2.09-.67-2-1.91a13.5,13.5,0,0,1,1.68-4.73c1.23-1.65,1.81-2.91,2.88-4.43a16.13,16.13,0,0,1,2.46-2.17c.68-.33.48.23,1,.21,1.17,0-1.28,1.94-2.12,3s.15,1.42.25,2.19a7.79,7.79,0,0,1-1.19,1.79c-1,1.19.18,1.06.92,1.2,1.21,0-.14,1.89.48,2.39.69.78,3.75-.74,3.18.83.3-.73.86-.23,1.25.43s.66,1.52.13,1.49c.21-.12-.43.88-1,1.52a11.17,11.17,0,0,1-1.13,1.11c-1.77.89-4,3.19-6,4.81-.09.13.3.77.7,1.72a8.82,8.82,0,0,1,.86,3.61,12.17,12.17,0,0,0,0,3.4,4.83,4.83,0,0,0,.51,1.57,4.68,4.68,0,0,0,1.2,1.35,2.08,2.08,0,0,0,1.18-.31,2.08,2.08,0,0,1,1.2-.34,2,2,0,0,0,.52.1l.44,0,.62,0a33.64,33.64,0,0,0,3.64-.11c.8-.07,1.55-.18,2.63-.35.5-.09,1-.19,1.52-.31l.76-.2.92-.25c.62-.18,1.23-.39,1.82-.63l.88-.38.76-.41c.5-.29,1-.59,1.46-.91l.69-.49.53-.48c.35-.32.68-.66,1-1a6.44,6.44,0,0,0,.81-1,19.64,19.64,0,0,0,1.12-1.83,13.32,13.32,0,0,0,.93-2.84l.22-1c0-.29.07-.54.12-.74.08-.41.2-.66.36-.7a6.63,6.63,0,0,1,3.77,1.34,12.46,12.46,0,0,0,3.9,2.18c1.21.46,2.41.78,3.81,1.43.73.39,1.38,1.2,2.1,1.59a16.81,16.81,0,0,0,3.25,1.07,3.68,3.68,0,0,0,2.3.06,6.36,6.36,0,0,0,1.33-.51,3.54,3.54,0,0,0,.94-.67,2,2,0,0,0,.65-1.75l.82-1.37Z"/><path class="cls-41" d="M20.66,152s3.91,4.11-2.69,4c0,0-.89.17-1.74.38s-1.67.5-1.54.75l-1.28.12a2.05,2.05,0,0,0-.21.39,2.16,2.16,0,0,0-.18,1c0,.78.58,1.81,2.47,2.84a6,6,0,0,1,.41.84c.15.41.21.77-.19.7,0,0-.21.17.26.73A20.75,20.75,0,0,0,20.24,167"/><path class="cls-42" d="M20.57,210.89a15.05,15.05,0,0,1-2.65-5.54,11.33,11.33,0,0,1-.06-5.67,44.29,44.29,0,0,1,4.79-10.43c.1-.26,0-.45-.27-.33-2.19.7-1.64-1-3-1-.51,0-1.45.27-1.54-.12-.47-2.05,1-5.11,3.48-8.47,1.11-1.45,2.86-3.15,4.34-4.72a8.59,8.59,0,0,1,1.51-1.2c.46-.3.31.07.55.08-.22.32-.82.84-1.1,1.27-.72.92-.53,1.39-1.38,2.37a34.78,34.78,0,0,0-2.22,2.89,2.36,2.36,0,0,0-.3,1.32,4.26,4.26,0,0,0,.85,3.77c1.81-.77,1.14.67,1.44,1.17,0,.19-.18.59-.26.93.15.57,1.15.48.33,1.68a29.89,29.89,0,0,0-4.25,7.69,13.63,13.63,0,0,0-.31,5.51c.1.6.23,1.2.37,1.77a13.34,13.34,0,0,0,.59,1.7c.11.27.21.51.33.75s.28.49.41.7a8.84,8.84,0,0,0,.69,1A7.8,7.8,0,0,0,25,209.82a14.64,14.64,0,0,0,1.45.75c.53.24,1,.42,1.59.64s1.29.43,1.94.63l1,.28,1.22.3c.81.19,1.63.37,2.44.53s2,.34,3,.48c.18,0-.1.32-1,.68a10,10,0,0,1-1.8.52,14.69,14.69,0,0,1-2.39.34c-.46,0-1,0-1.51,0l-.83-.05-.72-.06c-.5-.06-1-.14-1.58-.26l-.85-.21-.81-.24a15.62,15.62,0,0,1-1.51-.57l-.79-.37-.4-.2-.33-.19a14.92,14.92,0,0,1-1.34-.89c-.22-.17-.46-.35-.66-.53Z"/></g></g></g><path class="cls-17" d="M32.59,47.57l-8.86-9.09,10.18,7.58a1,1,0,0,1-1.2,1.61Z"/><line class="cls-6" x1="173.5" y1="209.32" x2="173.5" y2="144.32"/><line class="cls-6" x1="151.83" y1="209.32" x2="151.83" y2="144.32"/><line class="cls-6" x1="130.17" y1="209.32" x2="130.17" y2="144.32"/><line class="cls-6" x1="151.75" y1="170.73" x2="130.17" y2="149.14"/><line class="cls-6" x1="151.75" y1="193.87" x2="130.17" y2="172.29"/><line class="cls-6" x1="130.17" y1="170.73" x2="151.75" y2="149.14"/><line class="cls-6" x1="173.46" y1="170.73" x2="151.88" y2="149.14"/><line class="cls-6" x1="151.88" y1="170.73" x2="173.46" y2="149.14"/><line class="cls-6" x1="173.46" y1="193.87" x2="151.88" y2="172.29"/><line class="cls-6" x1="151.88" y1="193.87" x2="173.46" y2="172.29"/><line class="cls-6" x1="130.06" y1="170.73" x2="108.47" y2="149.14"/><line class="cls-6" x1="108.47" y1="170.73" x2="130.06" y2="149.14"/><line class="cls-6" x1="130.06" y1="193.87" x2="108.47" y2="172.29"/><line class="cls-6" x1="108.47" y1="193.87" x2="130.06" y2="172.29"/><line class="cls-6" x1="130.17" y1="193.87" x2="151.75" y2="172.29"/><line class="cls-6" x1="108.5" y1="209.32" x2="108.5" y2="144.32"/></g></g></g></svg>